<svg xmlns="http://www.w3.org/2000/svg" viewBox="0 0 24 24" fill="none" stroke="currentColor" stroke-width="2">
  <circle cx="12" cy="12" r="3"/>
  <path d="M19.4 15a1.6 1.6 0 0 0 .33 1.82l.06.06-1.42 1.42-.06-.06A1.6 1.6 0 0 0 15 19.4a1.6 1.6 0 0 0-1 .6h-2a1.6 1.6 0 0 0-1-.6 1.6 1.6 0 0 0-1.82.33l-.06.06-1.42-1.42.06-.06A1.6 1.6 0 0 0 4.6 15a1.6 1.6 0 0 0-.6-1v-2a1.6 1.6 0 0 0 .6-1 1.6 1.6 0 0 0-.33-1.82l-.06-.06L5.63 6.7l.06.06A1.6 1.6 0 0 0 9 4.6a1.6 1.6 0 0 0 1-.6h2a1.6 1.6 0 0 0 1 .6 1.6 1.6 0 0 0 1.82-.33l.06-.06 1.42 1.42-.06.06A1.6 1.6 0 0 0 19.4 9a1.6 1.6 0 0 0 .6 1v2a1.6 1.6 0 0 0-.6 1z"/>
</svg>
