<?xml version="1.0" encoding="UTF-8"?>
<svg version="1.1" xmlns="http://www.w3.org/2000/svg" width="424" height="402">
<path d="M0 0 C139.92 0 279.84 0 424 0 C424 132.66 424 265.32 424 402 C284.08 402 144.16 402 0 402 C0 269.34 0 136.68 0 0 Z " fill="#151520" transform="translate(0,0)"/>
<path d="M0 0 C2.31953724 0.98975692 4.47391429 2.11110302 6.66381836 3.36450195 C7.58018066 3.88584717 8.49654297 4.40719238 9.44067383 4.94433594 C10.42310059 5.50967041 11.40552734 6.07500488 12.41772461 6.6574707 C13.44397949 7.24278564 14.47023437 7.82810059 15.52758789 8.43115234 C18.68119765 10.2310328 21.83106651 12.03731498 24.98022461 13.8449707 C27.59790348 15.34413145 30.21607861 16.84242079 32.83447266 18.34033203 C34.51728742 19.30308136 36.1997411 20.26646213 37.88183594 21.23046875 C46.18574522 25.98172718 54.53666814 30.6483815 62.89575195 35.30175781 C63.90589355 35.86515869 64.91603516 36.42855957 65.95678711 37.0090332 C66.85478027 37.50870605 67.75277344 38.00837891 68.67797852 38.52319336 C70.48669261 39.56162158 72.24489005 40.688081 73.98022461 41.8449707 C79.66418722 42.13191618 85.15508936 41.59549033 90.79272461 40.9074707 C92.38770835 40.72328419 93.98276037 40.53968794 95.57788086 40.35668945 C96.33858887 40.26822754 97.09929687 40.17976563 97.88305664 40.08862305 C106.95842419 39.03423227 115.83906355 38.72486786 124.98022461 38.8449707 C123.40286772 45.87389437 121.08715874 51.87394758 117.73803711 58.2355957 C114.95960423 63.72807136 112.83821065 69.52438362 110.60839844 75.25488281 C110.28121826 76.092854 109.95403809 76.9308252 109.61694336 77.79418945 C109.3252124 78.55046631 109.03348145 79.30674316 108.73291016 80.0859375 C107.98022461 81.8449707 107.98022461 81.8449707 106.98022461 82.8449707 C106.67498499 87.49585785 106.67498499 87.49585785 107.98022461 91.8449707 C109.30805252 109.02773622 109.68760691 128.8288637 99.98022461 143.8449707 C99.08076405 145.57225337 98.18505883 147.30149573 97.29272461 149.0324707 C94.15185495 154.85534241 90.26838628 159.82760387 85.98022461 164.8449707 C86.55256836 164.94680664 87.12491211 165.04864258 87.71459961 165.15356445 C98.52007869 168.45109859 108.46610209 181.54251974 113.98022461 190.8449707 C115.51033105 194.11968449 116.77300206 197.44071754 117.98022461 200.8449707 C118.32311523 201.66868164 118.66600586 202.49239258 119.01928711 203.34106445 C119.94854401 205.76242084 120.53572071 208.05569065 121.04272461 210.5949707 C121.46358068 213.50258284 121.46358068 213.50258284 122.98022461 215.8449707 C123.08053018 217.96936691 123.11103921 220.09711499 123.11303711 222.22387695 C123.11432617 223.53807617 123.11561523 224.85227539 123.11694336 226.20629883 C123.11484863 226.89667236 123.11275391 227.5870459 123.1105957 228.29833984 C123.10530855 230.37450692 123.11050719 232.45045158 123.11694336 234.52661133 C123.12527901 248.15406561 121.22303906 257.78988073 114.98022461 269.8449707 C96.06759422 270.58342482 78.49233576 263.15193152 60.98022461 256.8449707 C62.85522461 252.0949707 62.85522461 252.0949707 63.98022461 249.8449707 C64.64022461 249.8449707 65.30022461 249.8449707 65.98022461 249.8449707 C68.84563264 238.28100259 69.95143393 225.43452042 63.85522461 214.7199707 C60.02094814 209.04796409 54.70723193 203.73694151 47.98022461 201.8449707 C47.98022461 201.1849707 47.98022461 200.5249707 47.98022461 199.8449707 C39.00617136 197.4489277 30.0268187 197.49764732 20.81616211 197.4309082 C19.17134666 197.41216567 17.52654052 197.39259004 15.88174438 197.3722229 C11.58454918 197.32122117 7.28732291 197.28142593 2.98999023 197.24407959 C-2.18317113 197.19674363 -7.35618224 197.1352847 -12.52922058 197.07623291 C-20.35934379 196.98841098 -28.18944391 196.91836799 -36.01977539 196.8449707 C-36.01977539 178.6949707 -36.01977539 160.5449707 -36.01977539 141.8449707 C-31.61118164 141.84239258 -27.20258789 141.83981445 -22.66040039 141.8371582 C-19.11380174 141.81830457 -15.56735468 141.79348659 -12.02082825 141.76467896 C-8.29423428 141.73602544 -4.56826442 141.71753472 -0.84155273 141.72485352 C2.75753423 141.73150963 6.35539752 141.70861299 9.95423126 141.66641617 C11.9745313 141.65008319 13.99500199 141.6632558 16.01531982 141.67721558 C27.21029689 141.50341497 35.49730444 138.1701149 43.98022461 130.8449707 C45.79670843 128.24976679 45.79670843 128.24976679 47.23022461 125.4074707 C47.98045898 124.0172168 47.98045898 124.0172168 48.74584961 122.59887695 C52.19366582 114.90675534 52.48631432 104.25671369 49.79272461 96.2824707 C44.87284094 86.95165686 34.95769057 82.88280417 26.04663086 77.9855957 C24.2629452 77.00102819 22.49497177 75.98809407 20.73022461 74.9699707 C15.21828992 71.80159019 9.58471422 68.8452689 3.98022461 65.8449707 C3.98022461 65.1849707 3.98022461 64.5249707 3.98022461 63.8449707 C-0.93324369 63.49870121 -3.69785482 64.3764502 -7.94946289 66.80981445 C-9.62468018 67.75570435 -9.62468018 67.75570435 -11.33374023 68.72070312 C-12.520893 69.40771531 -13.70790182 70.09497629 -14.89477539 70.7824707 C-16.12146783 71.48069501 -17.3488492 72.1777103 -18.5769043 72.87353516 C-20.98870778 74.24231381 -23.39664842 75.61748622 -25.80102539 76.99926758 C-29.04242744 78.85795989 -32.29765302 80.68936118 -35.56103516 82.5090332 C-50.82081794 91.02574329 -65.97002059 99.74407549 -80.99780273 108.66333008 C-83.01977539 109.8449707 -83.01977539 109.8449707 -86.59074402 111.33392334 C-88.83588196 112.6317957 -89.82655204 113.27927538 -90.67354202 115.75898743 C-90.92507727 118.2628839 -90.95083608 120.6870024 -90.90625 123.20336914 C-90.91702576 124.15004959 -90.92780151 125.09673004 -90.93890381 126.07209778 C-90.9663063 129.20030398 -90.9444102 132.32613144 -90.92211914 135.4543457 C-90.93150132 137.62340798 -90.94395731 139.79245898 -90.95936584 141.96148682 C-90.99164666 147.66962891 -90.98212912 153.37696914 -90.96398926 159.08514404 C-90.95284679 164.91012411 -90.98111982 170.73489712 -91.00610352 176.55981445 C-91.04929856 187.98834309 -91.04835013 199.41641198 -91.01977539 210.8449707 C-92.06493568 210.91915726 -92.06493568 210.91915726 -93.13121033 210.99484253 C-96.35369281 211.22736584 -99.5753683 211.4697159 -102.79711914 211.7121582 C-103.89262085 211.78974365 -104.98812256 211.8673291 -106.11682129 211.94726562 C-116.28865018 212.72494562 -126.09124855 214.55974553 -136.01977539 216.8449707 C-136.01977539 217.5049707 -136.01977539 218.1649707 -136.01977539 218.8449707 C-138.65977539 219.1749707 -141.29977539 219.5049707 -144.01977539 219.8449707 C-144.01977539 173.9749707 -144.01977539 128.1049707 -144.01977539 80.8449707 C-136.09977539 76.5549707 -128.17977539 72.2649707 -120.01977539 67.8449707 C-110.70608795 62.6787847 -101.47425728 57.38968763 -92.26977539 52.0324707 C-91.25302734 51.44071045 -90.2362793 50.8489502 -89.1887207 50.23925781 C-84.15522167 47.29852112 -79.14590558 44.32573489 -74.17602539 41.27856445 C-72.80655762 40.44192261 -72.80655762 40.44192261 -71.40942383 39.58837891 C-69.68906846 38.53360313 -67.97330713 37.47128601 -66.26293945 36.40039062 C-65.11390137 35.69619995 -65.11390137 35.69619995 -63.94165039 34.9777832 C-63.27746094 34.56415527 -62.61327148 34.15052734 -61.92895508 33.72436523 C-60.01977539 32.8449707 -60.01977539 32.8449707 -56.01977539 32.8449707 C-56.01977539 32.1849707 -56.01977539 31.5249707 -56.01977539 30.8449707 C-55.38813477 30.49418457 -54.75649414 30.14339844 -54.10571289 29.78198242 C-28.83508855 16.17997266 -28.83508855 16.17997266 -4.46606445 1.10351562 C-2.01977539 -0.1550293 -2.01977539 -0.1550293 0 0 Z " fill="#57B565" transform="translate(211.019775390625,24.155029296875)"/>
<path d="M0 0 C1.58160237 -0.02157689 3.16308541 -0.05567726 4.74414062 -0.10253906 C14.69259763 -0.3935871 21.92838316 0.0705442 30.06762695 6.4050293 C31.20982082 7.11773003 32.36236736 7.81435443 33.52856445 8.48706055 C35.48854263 9.65096179 37.44685102 10.81767904 39.40356445 11.98706055 C41.6937972 13.20605539 43.53579498 13.94305996 46.06762695 14.4050293 C46.06762695 15.0650293 46.06762695 15.7250293 46.06762695 16.4050293 C46.92356445 16.6525293 47.77950195 16.9000293 48.66137695 17.1550293 C53.5118448 18.9350175 57.52864935 21.73216761 61.84887695 24.5300293 C64.89391405 26.30383731 67.69349462 27.42937657 71.06762695 28.4050293 C71.06762695 29.0650293 71.06762695 29.7250293 71.06762695 30.4050293 C73.37762695 31.0650293 75.68762695 31.7250293 78.06762695 32.4050293 C78.06762695 33.0650293 78.06762695 33.7250293 78.06762695 34.4050293 C78.87071289 34.63319336 79.67379883 34.86135742 80.5012207 35.09643555 C84.99259225 36.74441963 88.97920556 38.98273559 93.13012695 41.3425293 C93.91967773 41.78532227 94.70922852 42.22811523 95.52270508 42.68432617 C98.69192733 44.46684766 101.82200745 46.24617941 104.8762207 48.22143555 C107.23910207 49.72184381 107.23910207 49.72184381 111.06762695 49.4050293 C111.39762695 48.4150293 111.72762695 47.4250293 112.06762695 46.4050293 C114.4820312 44.52504631 117.20733238 43.13757677 119.88012695 41.6550293 C120.96777344 41.01887695 120.96777344 41.01887695 122.07739258 40.36987305 C122.78186523 39.97413086 123.48633789 39.57838867 124.2121582 39.1706543 C124.85515869 38.80746094 125.49815918 38.44426758 126.16064453 38.07006836 C130.1508007 36.67854545 134.09447463 39.13478247 137.8605957 40.5715332 C141.5741505 41.97397525 145.32222172 43.27806732 149.06762695 44.5925293 C149.84235352 44.86516602 150.61708008 45.13780273 151.4152832 45.41870117 C153.29914125 46.08154011 155.18334719 46.74339015 157.06762695 47.4050293 C157.06762695 48.0650293 157.06762695 48.7250293 157.06762695 49.4050293 C158.59818726 49.61107788 158.59818726 49.61107788 160.15966797 49.82128906 C163.67799511 50.34682915 167.11825103 50.99729961 170.5949707 51.74487305 C172.40191406 52.13255859 172.40191406 52.13255859 174.24536133 52.52807617 C176.10644531 52.93123047 176.10644531 52.93123047 178.00512695 53.3425293 C179.24198242 53.60743164 180.47883789 53.87233398 181.75317383 54.14526367 C187.88629287 55.46629359 193.99417533 56.83155685 200.06762695 58.4050293 C198.05553104 60.55778029 196.16412725 62.06443488 193.57543945 63.46362305 C192.87999023 63.84405762 192.18454102 64.22449219 191.46801758 64.61645508 C190.71713867 65.02105957 189.96625977 65.42566406 189.19262695 65.8425293 C183.85751125 68.7538962 178.54257477 71.69069445 173.27856445 74.72924805 C172.3270752 75.27846924 171.37558594 75.82769043 170.39526367 76.39355469 C168.52790545 77.47427496 166.66230578 78.55804019 164.79858398 79.64501953 C163.94893066 80.13558838 163.09927734 80.62615723 162.22387695 81.1315918 C161.46913086 81.57067871 160.71438477 82.00976562 159.93676758 82.4621582 C158.06762695 83.4050293 158.06762695 83.4050293 156.06762695 83.4050293 C155.73762695 84.3950293 155.40762695 85.3850293 155.06762695 86.4050293 C153.4725361 87.13842898 151.86879336 87.85668012 150.23461914 88.49829102 C145.88970982 90.31633892 141.81620302 92.70159493 137.69262695 94.9675293 C136.73106689 95.49113037 135.76950684 96.01473145 134.77880859 96.55419922 C130.13665195 99.09833622 125.54135398 101.69044794 121.0246582 104.4519043 C120.25750488 104.91910889 119.49035156 105.38631348 118.69995117 105.86767578 C117.2700996 106.74705835 115.84802038 107.63924631 114.43530273 108.54589844 C111.79170427 110.17403741 109.75646152 111.3951888 106.60668945 111.44018555 C102.89529032 109.92707667 99.46999551 108.03717589 96.00512695 106.0300293 C95.29807617 105.63041992 94.59102539 105.23081055 93.86254883 104.8190918 C90.4207164 102.85417714 87.22929817 100.79937357 84.06762695 98.4050293 C82.18239026 97.44407442 82.18239026 97.44407442 80.31762695 96.7175293 C79.24512695 96.2844043 78.17262695 95.8512793 77.06762695 95.4050293 C77.06762695 94.7450293 77.06762695 94.0850293 77.06762695 93.4050293 C74.09762695 92.4150293 71.12762695 91.4250293 68.06762695 90.4050293 C68.06762695 89.7450293 68.06762695 89.0850293 68.06762695 88.4050293 C67.34575195 88.3225293 66.62387695 88.2400293 65.88012695 88.1550293 C62.48985981 87.25095806 60.75582031 85.62278882 58.06762695 83.4050293 C56.40174299 82.7364092 54.73495746 82.07003395 53.06762695 81.4050293 C51.13312903 80.33240964 49.21724861 79.2257692 47.31762695 78.0925293 C43.78024988 75.99853994 40.24189578 73.93030201 36.63012695 71.9675293 C32.82781688 69.87591246 29.1313012 67.62671613 25.44262695 65.3425293 C18.7803026 61.22118447 12.31974709 57.39119641 5.06762695 54.4050293 C4.07762695 53.9100293 4.07762695 53.9100293 3.06762695 53.4050293 C3.06762695 52.7450293 3.06762695 52.0850293 3.06762695 51.4050293 C2.33801758 51.29545898 1.6084082 51.18588867 0.85668945 51.07299805 C-2.1000213 50.36487825 -4.00307051 49.3449361 -6.55737305 47.7175293 C-12.89182244 43.78547849 -19.42880356 40.27716567 -26.00268555 36.7644043 C-26.99010742 36.23331055 -27.9775293 35.7022168 -28.99487305 35.1550293 C-30.34258789 34.43573242 -30.34258789 34.43573242 -31.7175293 33.7019043 C-33.93237305 32.4050293 -33.93237305 32.4050293 -35.93237305 30.4050293 C-36.15942383 27.79125977 -36.15942383 27.79125977 -36.12768555 24.5222168 C-36.12124023 23.35561523 -36.11479492 22.18901367 -36.1081543 20.98706055 C-36.09139648 19.76374023 -36.07463867 18.54041992 -36.05737305 17.2800293 C-36.04834961 16.04897461 -36.03932617 14.81791992 -36.0300293 13.54956055 C-36.00639853 10.50119115 -35.97345359 7.45320548 -35.93237305 4.4050293 C-34.84956055 4.2606543 -33.76674805 4.1162793 -32.65112305 3.9675293 C-28.93524415 3.48650204 -28.93524415 3.48650204 -25.43237305 2.4050293 C-17.10350995 0.02535413 -8.58912284 0.08781609 0 0 Z " fill="#389865" transform="translate(102.932373046875,270.594970703125)"/>
<path d="M0 0 C2.07743754 0.01822314 4.15442437 0.02050895 6.23193359 0.02026367 C18.9369989 0.05063014 30.9912541 0.79506248 43.33740234 3.95581055 C44.40982178 4.22240479 45.48224121 4.48899902 46.5871582 4.76367188 C49.79860562 5.56623542 53.00573689 6.38437638 56.21240234 7.20581055 C57.15712402 7.44412598 58.1018457 7.68244141 59.07519531 7.92797852 C61.64363936 8.576021 64.20983109 9.2320555 66.77490234 9.89331055 C67.51691895 10.083125 68.25893555 10.27293945 69.0234375 10.46850586 C79.06601676 13.11552996 88.34248415 17.43581696 97.77490234 21.70581055 C99.71738322 22.58274757 101.66018722 23.45896165 103.60325623 24.33459473 C105.36361259 25.12825958 107.12311727 25.9238127 108.88256836 26.71948242 C115.28681487 29.57812695 121.75873647 32.26422874 128.24755859 34.92456055 C130.24779677 35.7889586 132.22041904 36.7198323 134.16162109 37.7097168 C137.37314716 39.28463931 140.58211374 40.4770345 143.96240234 41.64331055 C148.12791577 43.10167688 152.25534143 44.5905703 156.33740234 46.26831055 C164.77582826 49.69079199 173.28201574 52.41973323 182.21240234 54.20581055 C182.21240234 54.86581055 182.21240234 55.52581055 182.21240234 56.20581055 C182.82768799 56.25987061 183.44297363 56.31393066 184.0769043 56.36962891 C188.33232496 56.76592535 192.5451762 57.21761538 196.75537109 57.9597168 C212.02755799 60.64788331 227.82506932 61.68763845 243.21240234 59.20581055 C243.54240234 58.87581055 243.87240234 58.54581055 244.21240234 58.20581055 C245.83208776 57.92839407 247.45270763 57.65565747 249.0769043 57.40600586 C257.32988549 56.11134434 264.68337951 53.74575307 272.35864258 50.45532227 C277.92354253 48.10952394 277.92354253 48.10952394 281.21240234 49.20581055 C271.07575784 56.24605239 260.64741304 61.57773251 249.21240234 66.20581055 C248.49407227 66.50003906 247.77574219 66.79426758 247.03564453 67.09741211 C243.50808044 68.49180291 241.05471377 69.20581055 237.21240234 69.20581055 C237.21240234 69.86581055 237.21240234 70.52581055 237.21240234 71.20581055 C228.64531711 73.37349038 220.4183841 73.54538559 211.63867188 73.52148438 C209.24480349 73.51835293 206.85220997 73.54174706 204.45849609 73.56713867 C187.5759404 73.63724075 172.14075287 70.65309069 156.21240234 65.20581055 C154.73330532 64.72642894 153.2541509 64.24722435 151.77490234 63.76831055 C150.25251166 63.25204704 148.73198273 62.73028822 147.21240234 62.20581055 C146.59220215 61.99311523 145.97200195 61.78041992 145.33300781 61.5612793 C130.10867112 56.32671076 130.10867112 56.32671076 123.23193359 53.1315918 C118.17971129 50.81558273 112.96201451 48.86092551 107.75927734 46.9128418 C106.58880859 46.47327148 105.41833984 46.03370117 104.21240234 45.58081055 C103.11927734 45.17604492 102.02615234 44.7712793 100.89990234 44.35424805 C98.21240234 43.20581055 98.21240234 43.20581055 96.21240234 41.20581055 C94.5465324 40.47282777 92.87786073 39.74526572 91.19287109 39.05737305 C89.19956861 38.2002923 87.31533328 37.22374748 85.39990234 36.20581055 C81.64811207 34.29356085 77.86283 33.10218135 73.80224609 32.0144043 C71.21240234 31.20581055 71.21240234 31.20581055 68.26708984 29.86987305 C62.52455064 27.35339233 56.42129758 25.84165279 50.39990234 24.14331055 C49.17980469 23.79204102 47.95970703 23.44077148 46.70263672 23.07885742 C39.91023821 21.14807891 33.15955561 19.46408639 26.21240234 18.20581055 C25.50446533 18.06361084 24.79652832 17.92141113 24.06713867 17.77490234 C-6.28520912 11.7422463 -48.83237046 11.23565908 -75.78759766 29.20581055 C-76.77759766 28.87581055 -77.76759766 28.54581055 -78.78759766 28.20581055 C-66.09094729 16.75698823 -50.90491834 10.33029199 -34.78759766 5.20581055 C-33.3509375 4.73014648 -33.3509375 4.73014648 -31.88525391 4.24487305 C-21.30865705 0.86971892 -11.07010736 -0.10002327 0 0 Z " fill="#52AB61" transform="translate(113.78759765625,245.794189453125)"/>
<path d="M0 0 C0.66 0 1.32 0 2 0 C1.67 0.99 1.34 1.98 1 3 C0.87927322 6.02722772 0.81453862 9.03309416 0.79467773 12.0612793 C0.78477814 12.98830658 0.77487854 13.91533386 0.76467896 14.87045288 C0.73306064 17.93834875 0.70830514 21.00626011 0.68359375 24.07421875 C0.66302452 26.19985866 0.64202805 28.32549447 0.62062073 30.4511261 C0.56539694 36.04884529 0.51598897 41.64660141 0.46777344 47.24438477 C0.41756069 52.95527437 0.36187344 58.66611026 0.30664062 64.37695312 C0.19905527 75.58458955 0.09761109 86.79227258 0 98 C-0.33 98 -0.66 98 -1 98 C-1.02312132 85.37004515 -1.04091401 72.7400953 -1.05181217 60.11012363 C-1.05704146 54.24617836 -1.06413994 48.38224751 -1.07543945 42.51831055 C-1.0862667 36.86438288 -1.09227649 31.21046913 -1.09487724 25.55653191 C-1.09673179 23.3942639 -1.10035295 21.23199669 -1.10573006 19.06973457 C-1.11293833 16.05241343 -1.11399103 13.03515057 -1.11352539 10.01782227 C-1.11712067 9.1143959 -1.12071594 8.21096954 -1.12442017 7.28016663 C-1.11405216 1.11405216 -1.11405216 1.11405216 0 0 Z " fill="#1F392F" transform="translate(121,137)"/>
<path d="M0 0 C-2.28819146 1.50554634 -4.58021169 3.00457043 -6.875 4.5 C-7.85146484 5.14388672 -7.85146484 5.14388672 -8.84765625 5.80078125 C-13.7734375 9 -13.7734375 9 -16 9 C-16 8.34 -16 7.68 -16 7 C-17.65 7 -19.3 7 -21 7 C-17.65834402 4.77222935 -14.20158945 3.3107624 -10.5 1.8125 C-9.82324219 1.52697266 -9.14648438 1.24144531 -8.44921875 0.94726562 C-3.35394067 -1.11798022 -3.35394067 -1.11798022 0 0 Z " fill="#43824E" transform="translate(395,295)"/>
<path d="M0 0 C0 0.66 0 1.32 0 2 C0.99 2.66 1.98 3.32 3 4 C2.24074219 4.26554687 1.48148438 4.53109375 0.69921875 4.8046875 C-0.79158203 5.33449219 -0.79158203 5.33449219 -2.3125 5.875 C-3.79169922 6.39707031 -3.79169922 6.39707031 -5.30078125 6.9296875 C-8.15594377 7.95305924 -8.15594377 7.95305924 -11 10 C-11.99 9.67 -12.98 9.34 -14 9 C-12.37680325 7.68527053 -10.751385 6.37328338 -9.125 5.0625 C-8.22007813 4.33160156 -7.31515625 3.60070312 -6.3828125 2.84765625 C-2.71035941 0 -2.71035941 0 0 0 Z " fill="#46854D" transform="translate(49,265)"/>
<path d="M0 0 C0 0.66 0 1.32 0 2 C0.99 2.66 1.98 3.32 3 4 C-1.455 4.495 -1.455 4.495 -6 5 C-3.5 0 -3.5 0 0 0 Z " fill="#4B9751" transform="translate(49,265)"/>
<path d="M0 0 C3.63 0.33 7.26 0.66 11 1 C9.515 2.485 9.515 2.485 8 4 C7.34 4 6.68 4 6 4 C5.67 3.34 5.34 2.68 5 2 C2.47266765 1.34444881 2.47266765 1.34444881 0 1 C0 0.67 0 0.34 0 0 Z " fill="#357F5A" transform="translate(292,328)"/>
</svg>
