<?xml version="1.0" encoding="UTF-8"?>
<svg version="1.1" xmlns="http://www.w3.org/2000/svg" width="1024" height="1024">
<path d="M0 0 C337.92 0 675.84 0 1024 0 C1024 337.92 1024 675.84 1024 1024 C686.08 1024 348.16 1024 0 1024 C0 686.08 0 348.16 0 0 Z " fill="#14131E" transform="translate(0,0)"/>
<path d="M0 0 C3.35395761 1.30200218 6.41888896 2.97727918 9.515625 4.7890625 C10.20857666 5.18649658 10.90152832 5.58393066 11.61547852 5.9934082 C13.12569402 6.86021435 14.63417376 7.73005008 16.14111328 8.60253906 C20.23609725 10.97212263 24.34565434 13.31621438 28.453125 15.6640625 C29.3191333 16.160271 30.1851416 16.65647949 31.07739258 17.16772461 C39.28899502 21.86631826 47.54498167 26.48448809 55.81420898 31.08081055 C61.42108733 34.20630808 66.93945206 37.41574161 72.36499023 40.84814453 C78.11317398 43.86416284 84.920206 41.62730038 90.98046875 40.5546875 C102.46422043 38.6766817 113.87492473 37.60636355 125.515625 37.9765625 C123.04480381 45.92093895 119.82849428 53.47717923 116.515625 61.1015625 C115.9762202 62.35011259 115.43715561 63.59880972 114.8984375 64.84765625 C113.9040277 67.15063019 112.90812091 69.45295881 111.91015625 71.75439453 C111.44996094 72.81770996 110.98976563 73.88102539 110.515625 74.9765625 C109.69082642 76.64900024 109.69082642 76.64900024 108.84936523 78.35522461 C107.27540607 82.6287989 107.19428592 85.91953119 107.36328125 90.41015625 C107.3915187 92.04621979 107.4195051 93.68228767 107.44726562 95.31835938 C107.50881403 97.85206142 107.57727201 100.38537127 107.65258789 102.91870117 C108.22860725 123.93824615 103.30200677 140.38927694 91.515625 157.9765625 C90.78472656 159.07355469 90.05382812 160.17054688 89.30078125 161.30078125 C88.71167969 162.18378906 88.12257813 163.06679688 87.515625 163.9765625 C88.27746094 164.51023437 89.03929687 165.04390625 89.82421875 165.59375 C106.82352342 177.86041429 118.21360554 194.44760989 122.828125 215.1015625 C125.49660524 232.45939109 124.53290822 254.95063766 114.515625 269.9765625 C103.39576551 271.28478126 91.10314727 267.10639582 80.515625 263.9765625 C79.40832031 263.65558594 78.30101562 263.33460938 77.16015625 263.00390625 C71.6554589 261.36804704 66.6131715 259.65867964 61.515625 256.9765625 C62.02166492 254.80781998 62.51546313 252.97688623 63.515625 250.9765625 C64.175625 250.9765625 64.835625 250.9765625 65.515625 250.9765625 C68.68289774 240.08906246 69.82964261 225.35787547 64.515625 214.9765625 C59.37548499 207.05217999 51.33087249 202.05788001 42.515625 198.9765625 C38.02092628 198.07184488 33.71352401 197.82671007 29.13330078 197.77124023 C28.42041397 197.76134064 27.70752716 197.75144104 26.97303772 197.74124146 C24.63570382 197.70985845 22.29834966 197.68496165 19.9609375 197.66015625 C18.33282975 197.63956664 16.70472711 197.61856966 15.07662964 197.59718323 C10.8056656 197.54216973 6.53465499 197.49266967 2.26361084 197.44433594 C-2.86853086 197.38510284 -8.00058803 197.31898964 -13.13265991 197.25403595 C-20.91651301 197.15628741 -28.70042205 197.06725308 -36.484375 196.9765625 C-36.484375 178.4965625 -36.484375 160.0165625 -36.484375 140.9765625 C-29.85408203 140.93789063 -29.85408203 140.93789063 -23.08984375 140.8984375 C-19.5377372 140.86670251 -15.98571743 140.83104899 -12.43367767 140.79277039 C-8.69933842 140.75359111 -4.96523164 140.7211166 -1.23071289 140.70556641 C2.37466689 140.69028379 5.97941327 140.65563782 9.5845089 140.60825348 C10.9513666 140.59355793 12.3183148 140.58552837 13.68525124 140.58467865 C25.01469925 140.5705693 35.40096575 139.2477493 43.7890625 130.98046875 C49.71699635 124.10031023 50.98283063 117.88783525 51.140625 108.9765625 C51.16382813 108.14616455 51.18703125 107.3157666 51.2109375 106.46020508 C51.12745052 99.82494718 49.53470927 94.32605422 45.515625 88.9765625 C42.52015075 86.46703008 39.30644924 84.73432697 35.828125 82.9765625 C34.90708984 82.48164307 33.98605469 81.98672363 33.03710938 81.47680664 C31.13945744 80.45813744 29.235908 79.45037929 27.32666016 78.45361328 C23.01184445 76.1864051 18.76822835 73.795201 14.515625 71.4140625 C12.43043 70.2629159 10.34501681 69.11253563 8.25390625 67.97216797 C6.515625 66.9765625 6.515625 66.9765625 3.890625 65.13671875 C0.51858343 63.48952081 -0.89144481 63.85536443 -4.484375 64.9765625 C-7.87732461 66.64348727 -11.11172553 68.54450224 -14.359375 70.4765625 C-16.25493649 71.58249732 -18.150772 72.6879626 -20.046875 73.79296875 C-20.97628906 74.33840332 -21.90570313 74.88383789 -22.86328125 75.44580078 C-26.33957921 77.47601578 -29.84487233 79.45098615 -33.359375 81.4140625 C-34.63946916 82.132552 -35.91941209 82.85131101 -37.19921875 83.5703125 C-37.87194824 83.94800781 -38.54467773 84.32570313 -39.23779297 84.71484375 C-57.61597197 95.02550411 -57.61597197 95.02550411 -75.81811523 105.64233398 C-80.66126723 108.52025848 -85.55235546 111.23655165 -90.484375 113.9765625 C-90.814375 145.9865625 -91.144375 177.9965625 -91.484375 210.9765625 C-98.414375 211.3065625 -105.344375 211.6365625 -112.484375 211.9765625 C-117.10887776 212.84659188 -121.42474798 213.73435934 -125.921875 214.9765625 C-128.00351998 215.51971171 -130.08553942 216.06142826 -132.16796875 216.6015625 C-133.05025146 216.84132813 -133.93253418 217.08109375 -134.84155273 217.328125 C-137.68994189 218.02699997 -140.5914064 218.49440107 -143.484375 218.9765625 C-143.484375 173.4365625 -143.484375 127.8965625 -143.484375 80.9765625 C-139.854375 78.9965625 -136.224375 77.0165625 -132.484375 74.9765625 C-128.95864367 73.00544258 -125.43714871 71.02859781 -121.921875 69.0390625 C-120.45028931 68.20652954 -120.45028931 68.20652954 -118.94897461 67.35717773 C-104.03135142 58.90185903 -89.18531408 50.32153752 -74.390625 41.65307617 C-64.11491931 35.63384495 -53.77229326 29.75258887 -43.36938477 23.95605469 C-37.32963821 20.58543261 -31.31833033 17.17565165 -25.359375 13.6640625 C-24.69204346 13.27210693 -24.02471191 12.88015137 -23.3371582 12.47631836 C-19.95391325 10.47756651 -16.6077421 8.43246607 -13.2890625 6.328125 C-12.60730957 5.90184814 -11.92555664 5.47557129 -11.22314453 5.03637695 C-9.93737865 4.22997162 -8.65905004 3.41152929 -7.39013672 2.57885742 C-4.85410242 0.99517506 -3.02760785 -0.02856234 0 0 Z " fill="#57B666" transform="translate(513.484375,283.0234375)"/>
<path d="M0 0 C1.62326299 -0.02160236 3.2464088 -0.05573263 4.86914062 -0.10253906 C15.27697851 -0.39873133 21.9699955 0.02568166 30.56494141 6.4050293 C32.37758319 7.43767074 34.20812502 8.43937722 36.05322266 9.4128418 C36.99512451 9.9179126 37.93702637 10.4229834 38.9074707 10.94335938 C39.88756104 11.46696045 40.86765137 11.99056152 41.87744141 12.5300293 C49.56071202 16.66227291 57.19446798 20.8603085 64.75244141 25.2175293 C72.85003963 29.87754288 80.98542697 34.46597422 89.15542603 38.99765015 C90.46167257 39.72288896 91.767005 40.44977685 93.07138062 41.17837524 C94.90134135 42.19996826 96.73459246 43.21539072 98.56884766 44.22924805 C99.62918213 44.81794678 100.6895166 45.40664551 101.78198242 46.01318359 C105.04719528 47.66698004 105.04719528 47.66698004 108.56494141 48.4050293 C110.45243639 47.76638277 110.45243639 47.76638277 112.24462891 46.60424805 C112.92654297 46.20399414 113.60845703 45.80374023 114.31103516 45.39135742 C115.01357422 44.96274414 115.71611328 44.53413086 116.43994141 44.0925293 C126.34089622 38.15011949 126.34089622 38.15011949 130.56494141 37.4050293 C133.21219789 38.2674839 135.3643077 39.15900675 137.81494141 40.4050293 C139.24043205 41.07528323 140.66894257 41.73914459 142.10009766 42.3972168 C142.83631348 42.73591797 143.5725293 43.07461914 144.33105469 43.42358398 C161.91587441 51.14937363 181.52560642 55.44552785 200.56494141 57.4050293 C200.56494141 58.0650293 200.56494141 58.7250293 200.56494141 59.4050293 C199.92806396 59.76105225 199.29118652 60.1170752 198.63500977 60.48388672 C184.21867561 68.5448129 169.8208179 76.63716843 155.44726562 84.77416992 C151.46061117 87.0298748 147.47180523 89.28176343 143.4831543 91.53393555 C139.68385792 93.67988917 135.88586424 95.82813836 132.08837891 97.97729492 C130.49239175 98.88028765 128.89607924 99.78270578 127.29931641 100.68432617 C125.36575183 101.77649939 123.43381486 102.87148743 121.50244141 103.9675293 C120.48021484 104.54631836 119.45798828 105.12510742 118.40478516 105.72143555 C115.45957657 107.40053338 115.45957657 107.40053338 112.50634766 109.68237305 C109.56494141 111.4050293 109.56494141 111.4050293 107.19775391 111.4284668 C103.41123098 109.95655432 99.96043496 108.04839469 96.43994141 106.0300293 C95.65586914 105.58739746 94.87179687 105.14476562 94.06396484 104.6887207 C86.69889719 100.51791125 79.37617468 96.27202929 72.06103516 92.0144043 C68.01422831 89.66058775 63.9488265 87.34098058 59.87744141 85.0300293 C55.73934651 82.67361415 51.67682059 80.24648513 47.6628418 77.68652344 C45.33486989 76.26449102 42.96145412 74.96280104 40.56103516 73.66674805 C34.61788869 70.44084766 28.71273093 67.15048333 22.81494141 63.8425293 C21.73946045 63.23973145 20.66397949 62.63693359 19.5559082 62.01586914 C3.855703 53.20997708 -11.81720792 44.35621765 -27.43505859 35.4050293 C-28.05896484 35.05327637 -28.68287109 34.70152344 -29.32568359 34.33911133 C-34.32974737 31.51034052 -34.32974737 31.51034052 -35.43505859 30.4050293 C-35.52254067 28.47835422 -35.54203193 26.54851069 -35.53271484 24.61987305 C-35.52949219 23.45004883 -35.52626953 22.28022461 -35.52294922 21.07495117 C-35.51457031 19.84325195 -35.50619141 18.61155273 -35.49755859 17.3425293 C-35.49304688 16.10696289 -35.48853516 14.87139648 -35.48388672 13.59838867 C-35.47205467 10.53388813 -35.45557033 7.46948208 -35.43505859 4.4050293 C-33.60336541 3.9196306 -31.769598 3.44205744 -29.93505859 2.9675293 C-28.91412109 2.70069336 -27.89318359 2.43385742 -26.84130859 2.15893555 C-17.94681029 0.19031379 -9.0651947 0.09041449 0 0 Z " fill="#389965" transform="translate(405.43505859375,529.594970703125)"/>
<path d="M0 0 C1.59473145 0.29849854 1.59473145 0.29849854 3.22167969 0.60302734 C17.09204907 3.22810529 30.81999435 5.84450608 44 11 C44.68594238 11.25942383 45.37188477 11.51884766 46.07861328 11.78613281 C57.62035189 16.15300489 68.87370706 21.13649013 80.11428833 26.21774292 C88.71934045 30.10638985 97.3511077 33.9163541 106.0625 37.5625 C106.99416992 37.95550293 107.92583984 38.34850586 108.88574219 38.75341797 C114.63384945 41.13897563 120.43715223 43.15891979 126.35620117 45.07788086 C129 46 129 46 132.078125 47.5625 C162.06832438 62.31703659 202.00507299 61.14757559 233 51 C236.03721388 49.78579089 238.95559425 48.49443374 241.87109375 47.015625 C243.91285752 46.04157256 245.79215887 45.46269108 248 45 C236.26067609 58.358541 215.90322996 65.10241057 199 69 C198.0409375 69.22429687 197.081875 69.44859375 196.09375 69.6796875 C172.15740529 74.2779853 145.06638513 70.96323885 122.234375 62.77734375 C119.35055948 61.77405828 116.42760292 60.92931331 113.5 60.0625 C108.93931481 58.6689573 104.66109092 57.07440827 100.34765625 55.0546875 C97.58358502 53.81292505 94.77430248 52.75260621 91.9375 51.6875 C82.36913591 48.05040254 73.02791321 43.88152856 63.75 39.5625 C52.73643854 34.51671309 41.34713762 30.23113606 30 26 C28.75283203 25.50886719 28.75283203 25.50886719 27.48046875 25.0078125 C15.59339119 20.43118639 3.10963581 17.36386836 -9.4375 15.25 C-10.12142822 15.13454834 -10.80535645 15.01909668 -11.51000977 14.90014648 C-37.87439793 10.75586952 -67.80426026 10.38122455 -93 20 C-94.72577514 20.49124151 -96.45494365 20.97073824 -98.1875 21.4375 C-102.60557193 22.71510077 -106.29095364 24.68794976 -110.1875 27.109375 C-111.0846875 27.55023437 -111.0846875 27.55023437 -112 28 C-112.66 27.67 -113.32 27.34 -114 27 C-102.45616097 16.998886 -90.20327582 10.61835242 -75.90527344 5.67260742 C-73.92015449 4.97181261 -71.95731724 4.2236358 -69.9921875 3.46875 C-48.55601442 -4.55752055 -22.30448598 -4.32904348 0 0 Z " fill="#53AD63" transform="translate(450,507)"/>
<path d="M0 0 C0.66 0 1.32 0 2 0 C1.67 0.99 1.34 1.98 1 3 C0.87927322 6.02722772 0.81453862 9.03309416 0.79467773 12.0612793 C0.78477814 12.98830658 0.77487854 13.91533386 0.76467896 14.87045288 C0.73306064 17.93834875 0.70830514 21.00626011 0.68359375 24.07421875 C0.66302452 26.19985866 0.64202805 28.32549447 0.62062073 30.4511261 C0.56539694 36.04884529 0.51598897 41.64660141 0.46777344 47.24438477 C0.41756069 52.95527437 0.36187344 58.66611026 0.30664062 64.37695312 C0.19905527 75.58458955 0.09761109 86.79227258 0 98 C-0.33 98 -0.66 98 -1 98 C-1.02312132 85.37004515 -1.04091401 72.7400953 -1.05181217 60.11012363 C-1.05704146 54.24617836 -1.06413994 48.38224751 -1.07543945 42.51831055 C-1.0862667 36.86438288 -1.09227649 31.21046913 -1.09487724 25.55653191 C-1.09673179 23.3942639 -1.10035295 21.23199669 -1.10573006 19.06973457 C-1.11293833 16.05241343 -1.11399103 13.03515057 -1.11352539 10.01782227 C-1.11712067 9.1143959 -1.12071594 8.21096954 -1.12442017 7.28016663 C-1.11405216 1.11405216 -1.11405216 1.11405216 0 0 Z " fill="#2A4F3A" transform="translate(423,396)"/>
<path d="M0 0 C10.56 0 21.12 0 32 0 C32.495 0.99 32.495 0.99 33 2 C21.78 2.33 10.56 2.66 -1 3 C-0.67 2.01 -0.34 1.02 0 0 Z " fill="#57A05F" transform="translate(402,505)"/>
<path d="M0 0 C0.66 0.33 1.32 0.66 2 1 C0.27278316 2.27348212 -1.45686238 3.54367057 -3.1875 4.8125 C-4.15042969 5.52019531 -5.11335937 6.22789062 -6.10546875 6.95703125 C-13.25047801 12 -13.25047801 12 -16 12 C-16 10.35 -16 8.7 -16 7 C-15.09636719 6.66226563 -14.19273437 6.32453125 -13.26171875 5.9765625 C-12.08222656 5.53054688 -10.90273438 5.08453125 -9.6875 4.625 C-7.92986328 3.96371094 -7.92986328 3.96371094 -6.13671875 3.2890625 C-2.91446407 2.08510352 -2.91446407 2.08510352 0 0 Z " fill="#519D5B" transform="translate(696,552)"/>
<path d="M0 0 C0.66 0 1.32 0 2 0 C4.63096039 6.48343811 5.39325819 12.02330843 5 19 C4.34 19.33 3.68 19.66 3 20 C2.95101562 19.2265625 2.90203125 18.453125 2.8515625 17.65625 C2.41252377 11.53998633 1.69992464 5.89307209 0 0 Z " fill="#458D60" transform="translate(579,500)"/>
<path d="M0 0 C0.66 0.33 1.32 0.66 2 1 C1.34 1.66 0.68 2.32 0 3 C0.33 3.66 0.66 4.32 1 5 C-0.95330868 6.03041513 -2.91281528 7.0490893 -4.875 8.0625 C-5.96554687 8.63097656 -7.05609375 9.19945312 -8.1796875 9.78515625 C-9.11039062 10.18605469 -10.04109375 10.58695313 -11 11 C-11.66 10.67 -12.32 10.34 -13 10 C-11.3970551 8.70681744 -9.79259858 7.41550844 -8.1875 6.125 C-7.29417969 5.40570312 -6.40085937 4.68640625 -5.48046875 3.9453125 C-3 2 -3 2 0 0 Z " fill="#509756" transform="translate(349,524)"/>
<path d="M0 0 C-1.22976563 0.27263672 -1.22976563 0.27263672 -2.484375 0.55078125 C-3.56203125 0.80214844 -4.6396875 1.05351563 -5.75 1.3125 C-6.81734375 1.55613281 -7.8846875 1.79976562 -8.984375 2.05078125 C-11.92210901 2.9754825 -13.69294262 4.00092358 -16 6 C-16 4.35 -16 2.7 -16 1 C-13.8973294 0.63705686 -11.79278943 0.28493028 -9.6875 -0.0625 C-8.51574219 -0.25972656 -7.34398437 -0.45695313 -6.13671875 -0.66015625 C-3 -1 -3 -1 0 0 Z " fill="#4A9A69" transform="translate(386,533)"/>
<path d="M0 0 C0.66 0.33 1.32 0.66 2 1 C-4.89715536 7.03938731 -4.89715536 7.03938731 -9.5 6.875 C-10.7375 6.441875 -10.7375 6.441875 -12 6 C-11.42507813 5.71511719 -10.85015625 5.43023438 -10.2578125 5.13671875 C-8.80655238 4.40606703 -7.362969 3.65984949 -5.9296875 2.89453125 C-5.25164063 2.53746094 -4.57359375 2.18039062 -3.875 1.8125 C-2.85019531 1.26529297 -2.85019531 1.26529297 -1.8046875 0.70703125 C-1.20914063 0.47371094 -0.61359375 0.24039063 0 0 Z " fill="#417D4E" transform="translate(696,552)"/>
<path d="M0 0 C0.66 0 1.32 0 2 0 C1.67 0.99 1.34 1.98 1 3 C0.77820215 4.89212737 0.59385985 6.78884472 0.4375 8.6875 C0.35371094 9.68136719 0.26992188 10.67523438 0.18359375 11.69921875 C0.12300781 12.45847656 0.06242187 13.21773438 0 14 C-0.33 14 -0.66 14 -1 14 C-1.02685938 11.85423363 -1.04633088 9.70837355 -1.0625 7.5625 C-1.07410156 6.36753906 -1.08570313 5.17257812 -1.09765625 3.94140625 C-1 1 -1 1 0 0 Z " fill="#254434" transform="translate(423,396)"/>
</svg>
