<?xml version="1.0" standalone="no"?>
<!DOCTYPE svg PUBLIC "-//W3C//DTD SVG 20010904//EN"
 "http://www.w3.org/TR/2001/REC-SVG-20010904/DTD/svg10.dtd">
<svg version="1.0" xmlns="http://www.w3.org/2000/svg"
 width="983.000000pt" height="988.000000pt" viewBox="0 0 983.000000 988.000000"
 preserveAspectRatio="xMidYMid meet">

<g transform="translate(0.000000,988.000000) scale(0.100000,-0.100000)"
fill="#000000" stroke="none">
<path d="M0 4940 l0 -4940 4915 0 4915 0 0 4940 0 4940 -4915 0 -4915 0 0
-4940z m4570 3392 l0 -949 -192 -199 c-106 -109 -255 -264 -332 -344 -133
-138 -584 -602 -986 -1015 -315 -324 -597 -612 -1085 -1110 -259 -264 -508
-519 -554 -568 -47 -48 -87 -86 -90 -84 -4 1 -211 208 -461 460 l-455 457 141
143 c77 78 228 234 334 347 107 113 292 306 410 430 119 124 335 349 480 500
483 503 1201 1246 2540 2627 135 139 246 253 248 253 1 0 2 -427 2 -948z m840
761 c102 -104 349 -354 550 -558 679 -689 944 -959 1405 -1430 252 -258 590
-603 750 -765 160 -162 452 -461 650 -665 198 -203 427 -439 509 -522 l150
-153 -35 0 c-33 0 -55 20 -356 328 -472 482 -1387 1397 -1414 1415 -30 19
-105 26 -102 9 2 -7 -2 -12 -7 -12 -6 0 -10 -7 -10 -16 0 -12 -6 -15 -20 -11
-15 4 -32 -6 -61 -35 -36 -37 -42 -40 -65 -29 -19 8 -24 8 -18 -1 5 -8 2 -9
-9 -5 -11 4 -14 2 -10 -9 3 -8 -1 -14 -11 -14 -9 0 -16 6 -16 13 0 8 -3 8 -8
1 -4 -6 -15 -13 -24 -17 -21 -7 -23 -37 -5 -56 10 -11 10 -13 0 -7 -9 5 -13 0
-13 -13 0 -19 -36 -51 -73 -64 -10 -4 -15 -12 -11 -18 4 -8 1 -8 -13 -1 -18
10 -19 8 -18 -22 0 -22 -3 -32 -11 -29 -6 2 -19 -3 -28 -12 -9 -9 -23 -14 -31
-11 -8 3 -14 0 -12 -7 1 -8 -10 -11 -30 -11 -18 1 -33 -2 -33 -7 0 -5 3 -8 8
-8 26 4 34 -1 22 -16 -11 -13 -15 -13 -22 -3 -7 9 -8 6 -5 -10 4 -17 2 -22 -8
-18 -9 3 -12 0 -9 -9 3 -7 -13 -33 -37 -57 -24 -24 -42 -49 -40 -57 1 -7 -2
-10 -8 -7 -5 4 -13 1 -17 -5 -4 -7 -3 -9 2 -6 6 3 16 -3 23 -15 7 -11 8 -17 2
-13 -7 4 -14 -6 -17 -24 -4 -17 -11 -31 -16 -31 -5 0 -6 6 -2 13 5 8 2 8 -9
-2 -12 -10 -17 -10 -17 -2 0 9 -4 9 -13 -1 -15 -15 -17 -59 -2 -50 5 3 4 -1
-2 -9 -10 -13 -10 -19 1 -34 14 -20 11 -45 -6 -45 -6 0 -6 6 1 14 8 10 9 16 1
21 -5 3 -10 -1 -10 -10 0 -10 -5 -13 -12 -9 -8 5 -8 1 1 -10 12 -14 12 -22 3
-37 -9 -13 -9 -19 -1 -19 6 0 9 -6 6 -13 -5 -13 103 -130 551 -596 151 -157
192 -205 183 -215 -8 -10 -6 -17 7 -30 10 -9 21 -13 25 -10 3 3 18 -5 32 -19
20 -18 25 -29 18 -41 -7 -13 -574 -595 -892 -916 l-64 -65 -3 -155 c-3 -236
-37 -375 -139 -585 -73 -148 -129 -227 -250 -348 -221 -223 -512 -337 -863
-337 -96 0 -114 -2 -119 -17 -5 -14 -8 -13 -15 7 -7 18 -11 20 -23 10 -13 -11
-15 -7 -15 27 l0 40 198 6 c224 7 297 19 447 78 131 51 238 121 357 237 249
241 369 539 372 924 l1 146 475 482 c261 265 477 486 478 491 2 5 -291 307
-650 672 -360 364 -887 899 -1172 1189 l-518 526 -1 946 c-1 520 0 946 3 946
3 0 89 -84 190 -187z m-52 -2864 c196 -29 393 -138 511 -281 60 -73 132 -213
162 -313 27 -92 37 -290 19 -389 -10 -54 -15 -65 -20 -46 -5 21 -9 16 -29 -40
-73 -200 -105 -252 -233 -381 -88 -88 -88 -89 -63 -99 52 -20 182 -115 245
-180 78 -81 124 -155 162 -263 47 -132 64 -388 25 -374 -7 2 -18 -10 -25 -27
-11 -28 -12 -22 -8 52 4 81 -10 203 -34 294 -24 89 -91 197 -170 272 -115 109
-240 185 -240 146 0 -5 -6 -10 -14 -10 -7 0 -17 -10 -21 -22 -4 -13 -8 -26
-10 -30 -1 -5 -3 -12 -4 -18 0 -5 -7 -10 -15 -10 -8 0 -17 -9 -21 -19 -3 -10
-15 -21 -25 -24 -14 -3 -20 -14 -20 -31 0 -14 -6 -26 -12 -26 -9 0 -8 -4 2
-10 13 -9 7 -14 -12 -11 -14 2 -8 -6 66 -84 63 -65 79 -90 103 -154 26 -69 28
-88 28 -211 0 -125 -2 -141 -29 -208 -53 -137 -168 -255 -293 -302 -36 -13
-100 -25 -168 -31 -131 -10 -815 -12 -831 -1 -18 12 -34 49 -34 80 0 25 -7 34
-37 49 -27 14 -39 27 -41 46 -3 22 1 27 31 32 37 7 47 23 47 82 0 57 -8 65
-38 38 -29 -27 -42 -31 -42 -13 0 6 -6 4 -13 -7 -8 -10 -19 -15 -25 -11 -7 4
-12 3 -12 -3 0 -6 -7 -8 -15 -5 -11 5 -13 2 -8 -12 5 -13 3 -15 -7 -9 -10 6
-12 4 -7 -8 3 -10 2 -17 -3 -17 -5 0 -10 8 -12 17 -3 16 -5 16 -24 -3 -11 -11
-28 -23 -37 -27 -10 -4 -17 -10 -16 -14 4 -21 -2 -33 -16 -33 -8 0 -15 6 -16
13 0 6 -4 3 -9 -8 -8 -19 -9 -18 -9 4 -1 26 -16 20 -16 -6 0 -29 -23 -25 -28
4 -5 33 -13 -304 -10 -431 2 -91 7 -111 24 -86 8 13 10 13 18 1 8 -12 78 -15
402 -18 217 -2 396 -6 398 -9 2 -2 -186 -4 -419 -4 l-423 0 -34 -26 -33 -25 0
1450 0 1449 174 179 173 178 509 -2 c314 -1 537 -7 582 -14z m1564 -32 c-7 -8
-9 -17 -5 -20 3 -4 2 -7 -4 -7 -6 0 -14 7 -17 16 -3 8 -2 13 3 10 5 -3 12 1
15 10 4 9 9 14 13 11 3 -4 1 -13 -5 -20z m-89 -131 c4 -10 1 -13 -8 -9 -8 3
-12 9 -9 14 7 12 11 11 17 -5z m-2803 -3416 c303 0 550 -3 550 -7 0 -5 -9 -21
-20 -38 -20 -31 -26 -96 -13 -144 6 -23 7 -23 14 -5 5 11 7 -9 7 -51 0 -50 -2
-63 -8 -45 -10 31 -11 2 -19 -640 l-7 -495 -3 455 c-3 527 -10 882 -17 890 -3
3 -246 5 -539 5 -343 0 -538 4 -544 10 -5 6 -11 38 -12 73 -1 34 -4 62 -6 62
-3 0 -11 -6 -19 -14 -7 -8 -23 -12 -34 -9 -11 3 -20 0 -20 -6 0 -6 -7 -11 -15
-11 -19 0 -19 10 2 35 13 17 15 17 9 2 -3 -11 -2 -16 5 -12 5 4 9 14 8 23 -3
36 1 63 10 58 5 -3 14 1 20 8 9 11 9 19 -1 35 -10 17 -10 25 0 41 6 11 12 23
12 27 0 5 -5 1 -10 -7 -8 -12 -10 -11 -10 8 0 21 -2 20 -36 -14 -28 -28 -34
-38 -23 -45 7 -4 10 -11 7 -15 -10 -9 -39 22 -30 31 4 5 -5 0 -20 -11 -25 -17
-41 -43 -19 -30 5 4 11 3 14 -1 2 -5 2 -3 1 4 -5 21 13 24 19 3 5 -18 -4 -25
-26 -21 -10 2 -67 -57 -67 -69 0 -5 15 -23 34 -41 l34 -32 -19 -21 c-11 -11
-28 -21 -37 -21 -9 0 -17 -5 -17 -10 0 -6 -4 -15 -8 -21 -4 -7 0 -14 8 -17 9
-4 12 -1 8 9 -3 7 -1 14 5 14 13 0 10 -24 -6 -43 -7 -8 -10 -22 -6 -31 7 -19
-6 -21 -26 -3 -8 6 -7 3 3 -9 20 -24 22 -38 5 -28 -9 6 -9 3 0 -9 8 -9 10 -22
6 -28 -4 -8 -3 -9 5 -5 6 4 18 0 27 -9 20 -20 11 -70 -11 -61 -8 3 -15 1 -15
-4 0 -9 15 -14 33 -11 5 1 6 -3 3 -8 -8 -12 13 -19 49 -15 20 2 25 0 16 -6
-13 -7 -13 -11 0 -26 8 -10 9 -15 2 -11 -8 5 -10 -5 -7 -34 l4 -42 -22 19
c-50 42 85 -101 474 -503 225 -233 421 -437 436 -455 l27 -33 -29 23 c-34 26
-54 29 -36 5 19 -26 -687 683 -1581 1587 l-776 785 459 475 c252 261 635 658
851 882 l392 407 3 -1374 2 -1375 550 0z m2050 1034 c-7 -24 -17 -47 -23 -51
-7 -4 -8 0 -4 12 4 10 13 38 19 64 6 25 13 40 16 32 2 -7 -1 -33 -8 -57z
m-1770 6 c0 -5 -5 -10 -11 -10 -5 0 -7 5 -4 10 3 6 8 10 11 10 2 0 4 -4 4 -10z
m-150 -50 c0 -5 -2 -10 -4 -10 -3 0 -8 5 -11 10 -3 6 -1 10 4 10 6 0 11 -4 11
-10z m-153 -252 c-3 -8 -6 -5 -6 6 -1 11 2 17 5 13 3 -3 4 -12 1 -19z m-652
-558 c3 -5 -1 -10 -10 -10 -9 0 -13 5 -10 10 3 6 8 10 10 10 2 0 7 -4 10 -10z
m-119 -87 c-10 -10 -19 5 -10 18 6 11 8 11 12 0 2 -7 1 -15 -2 -18z m86 13
c15 2 16 -1 6 -19 -8 -16 -13 -18 -16 -8 -3 10 -6 10 -12 1 -4 -7 -7 -1 -7 15
0 15 2 23 6 17 3 -5 14 -8 23 -6z m-48 -4 c3 -5 -1 -9 -9 -9 -8 0 -12 4 -9 9
3 4 7 8 9 8 2 0 6 -4 9 -8z m1968 -295 c3 -13 1 -32 -3 -43 -5 -13 -8 -7 -8
24 -1 46 4 55 11 19z m35 -124 c-3 -10 -5 -4 -5 12 0 17 2 24 5 18 2 -7 2 -21
0 -30z m-710 -125 c-2 -18 -4 -6 -4 27 0 33 2 48 4 33 2 -15 2 -42 0 -60z
m-292 -1048 c27 -27 47 -50 44 -50 -3 0 -27 23 -54 50 -27 28 -47 50 -44 50 3
0 27 -22 54 -50z m286 -40 c27 0 24 -34 -6 -64 l-25 -25 1 57 c0 31 3 51 6 45
2 -7 13 -13 24 -13z m-131 -156 c0 4 -5 16 -10 27 -6 10 -7 19 -3 19 11 0 73
-62 73 -74 0 -5 -3 -6 -7 -3 -3 4 -11 2 -18 -3 -8 -6 -25 5 -56 38 -24 26 -29
34 -11 18 17 -17 32 -26 32 -22z"/>
<path d="M7362 6681 c1 -15 8 -28 15 -28 6 0 10 4 7 8 -2 4 -1 9 3 12 5 2 2 2
-6 0 -11 -3 -11 0 -2 11 9 11 8 15 -4 20 -12 4 -15 -1 -13 -23z"/>
<path d="M7165 6500 c3 -5 11 -10 16 -10 6 0 7 5 4 10 -3 6 -11 10 -16 10 -6
0 -7 -4 -4 -10z"/>
<path d="M4380 5779 c0 -5 5 -7 10 -4 6 3 10 8 10 11 0 2 -4 4 -10 4 -5 0 -10
-5 -10 -11z"/>
<path d="M4815 5780 c44 -4 89 -11 99 -16 14 -5 17 -4 12 4 -9 15 135 17 150
3 5 -6 41 -12 79 -14 39 -1 -113 -4 -337 -5 l-408 -2 0 -430 0 -430 374 0
c206 0 397 4 427 10 83 15 191 73 239 128 143 161 157 394 34 564 -20 29 -30
47 -20 39 9 -8 19 -11 22 -8 12 12 -7 43 -39 65 -34 22 -73 30 -62 12 8 -14 9
-14 -81 20 -53 19 -70 29 -52 30 33 0 44 15 20 26 -9 5 -134 9 -277 10 -176 1
-234 -1 -180 -6z"/>
<path d="M5923 5075 c-7 -8 -9 -16 -4 -19 5 -3 12 1 15 10 8 22 4 25 -11 9z"/>
<path d="M5757 4844 c-18 -24 -18 -24 6 -24 26 0 47 17 47 38 0 11 -3 12 -14
3 -8 -7 -16 -8 -18 -2 -1 5 -11 -2 -21 -15z"/>
<path d="M5686 4755 c4 -8 8 -15 10 -15 2 0 4 7 4 15 0 8 -4 15 -10 15 -5 0
-7 -7 -4 -15z"/>
<path d="M4780 4463 c-261 -2 -398 -7 -405 -14 -7 -7 -3 -16 13 -29 l23 -19
-1 -468 -2 -468 399 -3 c322 -2 412 1 470 13 214 44 360 214 380 440 6 81 -11
165 -53 246 -19 39 -23 54 -13 59 19 12 -6 63 -52 105 -74 67 -283 152 -349
142 -8 -1 -193 -3 -410 -4z"/>
<path d="M3403 2920 c0 -47 2 -66 4 -42 2 23 2 61 0 85 -2 23 -4 4 -4 -43z"/>
<path d="M3381 2844 c0 -11 3 -14 6 -6 3 7 2 16 -1 19 -3 4 -6 -2 -5 -13z"/>
<path d="M3401 2794 c0 -11 3 -14 6 -6 3 7 2 16 -1 19 -3 4 -6 -2 -5 -13z"/>
<path d="M3182 2679 c5 -14 0 -16 -33 -13 -25 2 -38 0 -34 -6 4 -6 11 -8 16
-5 5 4 9 1 9 -6 0 -10 3 -10 12 -1 8 8 18 6 40 -9 15 -11 28 -19 29 -17 5 20
3 55 -4 51 -4 -2 -15 1 -24 9 -14 11 -16 11 -11 -3z"/>
<path d="M3152 2606 c7 -8 15 -12 17 -11 5 6 -10 25 -20 25 -5 0 -4 -6 3 -14z"/>
<path d="M3163 2543 c0 -9 4 -10 14 -2 7 6 13 12 13 14 0 1 -6 2 -13 2 -8 0
-14 -6 -14 -14z"/>
<path d="M3172 2324 c-7 -8 -8 -14 -3 -14 10 0 25 19 20 25 -2 1 -10 -3 -17
-11z"/>
<path d="M4025 1370 c16 -16 33 -30 39 -30 5 0 -3 14 -19 30 -16 17 -33 30
-39 30 -5 0 3 -13 19 -30z"/>
<path d="M4100 1295 c7 -9 15 -13 17 -11 7 7 -7 26 -19 26 -6 0 -6 -6 2 -15z"/>
</g>
</svg>
