<?xml version="1.0" standalone="no"?>
<!DOCTYPE svg PUBLIC "-//W3C//DTD SVG 20010904//EN"
 "http://www.w3.org/TR/2001/REC-SVG-20010904/DTD/svg10.dtd">
<svg version="1.0" xmlns="http://www.w3.org/2000/svg"
 width="959.000000pt" height="1038.000000pt" viewBox="0 0 959.000000 1038.000000"
 preserveAspectRatio="xMidYMid meet">
<metadata>
Created by potrace 1.16, written by Peter Selinger 2001-2019
</metadata>
<g transform="translate(0.000000,1038.000000) scale(0.100000,-0.100000)"
fill="#000000" stroke="none">
<path d="M0 5190 l0 -5190 4795 0 4795 0 0 5190 0 5190 -4795 0 -4795 0 0
-5190z m7900 5003 c-1 -50 -96 -221 -177 -317 -18 -22 -33 -45 -33 -52 0 -8
-11 -19 -24 -26 -13 -7 -45 -39 -71 -70 -26 -32 -51 -58 -55 -58 -14 0 -110
-99 -110 -113 0 -8 -9 -25 -20 -38 l-19 -24 -1 23 c0 12 -2 22 -4 22 -3 0 -40
-25 -83 -54 -43 -30 -106 -72 -140 -93 -35 -21 -63 -44 -63 -50 0 -13 -12 -17
-37 -14 -6 1 -14 -3 -18 -9 -8 -13 -25 -13 -25 -1 0 5 9 13 20 16 12 4 31 16
43 27 20 18 99 71 183 123 18 11 75 55 126 98 187 158 361 375 453 565 29 60
55 81 55 45z m-6142 -75 c132 -240 353 -478 587 -634 158 -106 630 -364 666
-364 17 0 233 -110 244 -124 6 -7 55 -37 109 -67 55 -30 122 -76 149 -102 27
-26 52 -46 54 -43 3 3 17 -1 32 -9 35 -20 131 -109 109 -101 -22 7 -23 -6 -3
-44 19 -37 24 -38 17 -5 -3 20 0 25 16 25 27 0 223 -194 325 -321 109 -137
216 -315 217 -362 0 -33 -19 -32 -35 0 -18 35 -37 53 -56 53 -11 0 -19 5 -19
10 0 6 -9 10 -19 10 -13 0 -24 13 -35 40 -18 44 -42 56 -32 15 6 -23 4 -25
-19 -19 -61 15 -87 -1 -40 -26 14 -7 25 -20 25 -27 0 -8 -4 -11 -10 -8 -5 3
-10 2 -10 -3 0 -6 7 -13 16 -16 8 -3 12 -11 9 -17 -4 -5 0 -18 7 -27 9 -10 12
-26 9 -41 -5 -19 -8 -21 -18 -10 -6 8 -13 25 -15 39 -2 17 -10 26 -25 28 -25
4 -30 21 -11 40 9 9 8 12 -4 12 -9 0 -18 -5 -20 -12 -6 -17 -124 87 -136 120
-27 72 -25 69 -29 50 -3 -10 -7 -18 -10 -18 -17 0 -103 64 -103 76 0 8 -15 20
-32 27 -18 8 -39 21 -46 30 -7 8 -37 28 -65 42 -29 15 -69 40 -89 56 -20 16
-40 29 -43 29 -4 0 -21 12 -38 26 -17 14 -101 61 -186 104 -86 43 -168 89
-183 103 -15 14 -40 55 -57 91 -16 36 -35 66 -41 66 -6 0 -5 -11 5 -30 8 -16
15 -34 15 -41 0 -6 16 -33 36 -60 38 -52 34 -67 -6 -24 -13 14 -29 25 -36 25
-6 0 -18 8 -25 17 -8 9 -61 39 -118 65 -58 27 -118 58 -133 69 -15 11 -32 18
-37 15 -5 -4 -31 13 -58 35 -26 23 -64 49 -83 58 -67 30 -265 175 -343 250
-217 210 -361 468 -423 759 -15 75 -19 242 -5 242 5 0 27 -33 49 -72z m73
-765 c41 -58 193 -212 277 -283 59 -48 80 -79 46 -66 -12 4 -15 2 -10 -9 12
-32 -22 -12 -79 46 -33 34 -79 77 -102 96 -23 19 -56 57 -73 84 -18 27 -34 49
-36 49 -12 0 62 -120 99 -159 23 -25 56 -63 71 -84 16 -21 45 -47 65 -57 35
-18 153 -130 137 -130 -4 0 -24 13 -44 30 -20 16 -74 59 -118 94 -45 36 -92
81 -104 100 -12 20 -27 39 -33 43 -25 16 -97 121 -113 164 -19 52 -34 129 -24
129 4 0 22 -21 41 -47z m3046 -212 c37 -27 73 -82 73 -113 0 -30 -51 -115 -78
-129 -15 -8 -30 -18 -34 -23 -9 -13 -18 -232 -23 -568 -2 -164 -6 -302 -10
-308 -15 -25 -22 -3 -28 88 -4 64 -14 119 -28 156 -19 51 -27 61 -60 74 -42
16 -44 33 -4 26 l25 -4 -26 50 c-14 27 -39 61 -55 74 -32 27 -37 39 -14 29 13
-5 14 -2 4 21 -14 30 -33 35 -24 6 10 -33 -10 -23 -31 15 -11 22 -21 30 -25
23 -7 -11 19 -46 91 -123 15 -16 33 -40 39 -52 11 -22 10 -22 -51 -20 l-63 2
-38 75 c-25 51 -39 94 -43 133 -3 31 -2 57 1 57 3 0 17 -8 32 -17 14 -10 33
-18 42 -20 28 -4 96 -36 119 -57 37 -33 52 -70 52 -133 0 -39 8 -72 23 -103
l22 -45 3 300 3 300 -43 39 c-59 53 -78 84 -78 132 0 50 31 100 80 125 51 28
100 24 147 -10z m1713 -49 c0 -8 -25 -25 -75 -52 -92 -51 -97 -55 -126 -119
-23 -50 -27 -66 -17 -73 10 -5 2 -17 -26 -43 -46 -41 -40 -47 10 -9 45 35 43
23 -3 -22 -21 -21 -29 -30 -18 -22 27 21 96 54 73 35 -22 -17 -23 -37 -4 -37
8 0 16 -6 19 -12 4 -10 7 -10 18 0 25 23 32 12 8 -14 l-24 -26 25 7 c30 9 77
51 93 84 7 14 18 26 25 29 8 2 -3 -26 -23 -64 l-37 -69 42 43 c23 23 45 42 49
42 4 0 18 18 31 39 28 44 55 40 43 -8 -17 -73 -66 -130 -145 -171 -185 -95
-236 -125 -263 -151 -17 -16 -35 -29 -40 -29 -4 0 -17 -8 -28 -17 -20 -17 -20
-17 -13 7 25 94 13 108 -19 23 -21 -56 -47 -88 -95 -114 -42 -24 -97 -63 -126
-90 -11 -10 -25 -19 -30 -19 -6 0 -28 -18 -49 -41 -22 -22 -55 -47 -72 -54
-18 -8 -33 -18 -33 -23 0 -10 -139 -152 -185 -189 -16 -13 -33 -23 -39 -23 -6
0 -16 -8 -21 -18 -6 -10 -19 -35 -29 -55 -11 -20 -29 -40 -40 -43 -12 -4 -29
-13 -38 -21 -16 -15 -17 -12 -11 38 7 63 3 55 31 64 19 5 23 3 20 -11 -2 -9 2
-19 8 -21 9 -3 29 65 21 73 -1 1 -22 -7 -47 -19 l-45 -22 -9 -73 c-7 -57 -6
-76 4 -82 11 -7 2 -29 -27 -69 -2 -3 -10 4 -17 15 -12 15 -17 17 -27 7 -7 -7
-19 -13 -27 -13 -8 0 -12 6 -9 13 19 45 19 47 3 47 -9 0 -19 -6 -22 -14 -3 -8
-19 -18 -35 -21 -31 -7 -52 -34 -48 -63 4 -29 -11 -80 -26 -86 -8 -3 -11 -13
-8 -26 4 -13 -2 -32 -16 -51 -20 -26 -20 -29 -4 -29 14 0 11 -7 -15 -31 -26
-24 -30 -34 -21 -45 9 -11 6 -21 -10 -46 l-22 -33 7 85 c8 106 84 347 147 470
96 186 132 248 185 324 227 323 532 601 842 768 70 38 142 79 180 102 93 56
180 89 180 68z m-2589 -34 c16 -18 29 -39 29 -48 0 -13 1 -13 10 0 5 8 7 23 4
33 -6 18 12 25 18 7 2 -6 19 1 38 15 18 14 47 25 63 25 33 0 67 -32 67 -62 0
-10 7 -18 15 -18 8 0 15 -4 15 -9 0 -5 10 -12 23 -14 14 -3 10 -5 -13 -6 -20
0 -41 4 -47 10 -8 8 -11 3 -10 -19 1 -17 -2 -31 -8 -31 -5 0 -9 9 -7 19 2 13
-2 20 -13 20 -11 0 -15 -5 -11 -16 8 -21 -33 -74 -57 -74 -15 0 -18 -5 -15
-25 3 -15 1 -25 -6 -25 -18 0 -36 22 -36 42 0 23 -18 24 -27 2 -4 -10 1 -22
12 -30 24 -18 14 -27 -20 -18 -20 5 -23 9 -13 16 10 7 9 11 -6 23 -27 21 -35
19 -42 -10 -6 -26 -29 -34 -37 -12 -2 6 -8 8 -13 4 -9 -9 44 -56 64 -57 16 0
11 -22 -6 -28 -7 -2 -12 4 -12 13 0 13 -4 14 -21 4 -12 -6 -19 -7 -15 -1 8 13
-20 36 -34 27 -6 -4 -17 -1 -26 5 -8 7 -36 14 -62 15 -26 2 -58 6 -72 10 l-25
8 23 -23 c32 -30 20 -37 -17 -10 -17 11 -35 19 -40 16 -5 -3 -7 3 -4 14 3 13
19 24 44 30 24 7 39 17 39 26 0 14 -5 13 -33 -3 l-33 -20 -15 37 c-17 40 -7
61 28 58 34 -3 51 2 56 16 4 10 1 13 -9 9 -17 -6 -18 1 -3 25 11 17 15 17 73
3 33 -9 64 -20 69 -26 4 -6 11 -4 17 5 17 26 11 32 -22 27 -27 -4 -98 14 -98
25 0 2 31 3 68 3 53 0 69 -3 68 -14 -1 -8 5 -16 12 -18 8 -3 12 1 10 9 -2 11
19 46 30 48 2 0 16 -15 33 -32z m374 -150 c76 -60 71 -183 -10 -236 l-35 -22
0 -91 c0 -50 5 -100 11 -111 7 -12 79 -89 162 -172 150 -151 217 -236 217
-277 0 -16 -10 -7 -43 37 -70 95 -134 161 -267 277 -69 60 -128 117 -132 126
-4 9 -7 57 -7 108 l-1 92 -42 28 c-51 34 -77 82 -78 142 0 37 5 49 39 82 36
37 42 39 98 39 47 0 67 -5 88 -22z m978 8 c54 -23 80 -59 85 -119 4 -49 1 -57
-27 -90 -23 -26 -39 -35 -59 -34 l-27 2 -5 -110 c-5 -83 -10 -117 -24 -137
-12 -19 -14 -28 -6 -28 18 0 -6 -27 -39 -43 -14 -7 -25 -20 -23 -27 4 -17 -25
-40 -43 -34 -18 7 -267 -264 -294 -320 -26 -53 -41 -66 -41 -36 0 55 61 138
239 325 l181 190 0 94 0 93 -45 40 c-61 54 -74 99 -47 162 17 37 30 51 64 66
51 23 68 24 111 6z m-2998 -40 c98 -84 97 -81 38 -60 -10 4 0 -7 22 -24 22
-17 50 -32 61 -32 12 0 29 -11 38 -25 9 -14 26 -25 37 -25 38 0 79 -29 79 -55
0 -31 -5 -31 -55 0 -22 14 -51 25 -65 24 l-25 0 30 -22 c42 -32 119 -107 113
-112 -10 -10 -138 79 -199 138 -71 68 -144 184 -133 211 9 22 13 21 59 -18z
m2766 -203 c-5 -10 -8 -42 -8 -72 1 -52 -1 -56 -44 -93 -42 -37 -43 -38 -12
-26 38 14 46 9 38 -25 -4 -16 -20 -31 -46 -42 -21 -10 -44 -24 -51 -32 -7 -9
0 -8 20 4 17 10 34 14 39 10 11 -12 -10 -40 -41 -55 -36 -18 -122 -98 -146
-137 -11 -18 -20 -44 -20 -59 0 -14 -4 -26 -10 -26 -27 0 11 125 43 138 4 2
22 32 39 65 17 34 40 75 51 90 22 33 55 89 94 164 21 41 24 56 15 65 -9 9 -17
-1 -36 -43 -19 -43 -26 -50 -31 -36 -10 24 -25 4 -25 -33 0 -37 -16 -58 -32
-42 -22 22 -28 13 -28 -38 0 -40 -3 -48 -15 -44 -11 5 -15 -1 -15 -24 0 -34
-15 -50 -24 -26 -22 57 19 159 90 227 86 81 180 135 155 90z m-3006 -83 c-33
-33 -36 -40 -21 -46 15 -6 15 -8 -4 -21 -23 -16 -18 -35 7 -26 13 5 13 3 -2
-20 -9 -15 -21 -27 -26 -27 -5 0 -9 -15 -9 -34 0 -18 -7 -39 -15 -46 -9 -7
-13 -20 -10 -30 6 -18 -25 -51 -145 -152 -107 -90 -382 -367 -470 -474 -344
-417 -606 -884 -785 -1404 -66 -191 -107 -368 -166 -710 -38 -224 -56 -662
-36 -900 10 -129 24 -265 33 -320 11 -70 -3 -43 -20 40 -17 77 -39 284 -39
353 0 26 -3 35 -10 28 -7 -7 -19 0 -38 21 -36 37 -36 42 -4 35 19 -3 25 0 23
10 -2 8 -6 13 -9 11 -13 -6 -38 24 -32 39 4 11 2 14 -8 11 -8 -3 -13 -12 -11
-19 2 -7 -8 -1 -22 14 -28 30 -35 47 -12 28 17 -14 29 0 20 23 -12 30 21 16
45 -19 13 -19 27 -35 32 -35 17 0 9 16 -21 45 -17 16 -28 35 -26 41 3 7 -8 17
-25 23 -16 5 -29 15 -29 20 0 6 -7 11 -15 11 -11 0 -15 12 -15 46 0 36 3 45
15 41 8 -4 26 0 40 7 l26 14 -22 16 c-22 15 -44 13 -34 -5 4 -5 2 -9 -4 -9
-10 0 -20 39 -19 75 1 47 30 339 44 445 38 285 155 705 291 1045 93 230 259
538 425 784 37 55 240 316 257 331 3 3 28 32 56 65 143 173 436 447 630 590
173 127 232 159 160 85z m665 -70 c14 -1 39 -7 55 -15 l30 -14 -40 5 c-39 5
-39 5 -15 -10 14 -8 23 -18 21 -23 -3 -4 4 -9 15 -11 46 -7 104 -35 118 -58
20 -30 17 -30 -44 1 -49 25 -83 33 -65 16 6 -5 38 -23 73 -41 34 -18 67 -41
73 -52 10 -18 9 -18 -28 -3 -21 9 -58 25 -83 35 -68 27 -122 60 -155 95 -46
48 -85 96 -85 104 0 4 24 0 53 -10 28 -10 63 -19 77 -19z m-438 -70 c3 -23 1
-30 -9 -26 -7 3 -13 -1 -13 -9 0 -8 4 -15 9 -15 14 0 34 -59 35 -106 1 -25 6
-46 14 -49 6 -2 12 -11 12 -20 0 -8 4 -15 10 -15 5 0 14 -9 19 -19 8 -14 6
-25 -10 -45 -11 -14 -22 -37 -25 -51 -2 -15 -11 -43 -19 -63 -7 -20 -21 -73
-29 -117 -38 -200 -40 -226 -28 -392 9 -135 15 -174 42 -254 73 -217 187 -400
330 -532 l61 -57 -33 0 c-19 0 -39 -5 -45 -11 -12 -12 -105 -34 -185 -44 -51
-6 -62 -4 -118 26 -70 37 -94 62 -152 162 -23 40 -53 84 -67 99 -13 15 -22 30
-19 33 3 3 27 -5 54 -17 38 -16 79 -23 179 -29 73 -4 134 -3 139 2 6 5 2 11
-10 14 -10 4 -27 11 -37 16 -11 6 -42 5 -86 -2 -58 -10 -76 -9 -120 6 -28 9
-51 21 -51 26 0 5 -18 20 -41 35 -29 18 -48 41 -66 81 -27 59 -96 323 -87 333
3 3 19 -12 36 -33 33 -40 138 -120 179 -135 39 -15 129 -24 129 -13 0 5 -26
17 -57 26 -75 22 -106 38 -174 92 -101 79 -131 173 -110 340 19 143 33 218 43
224 6 4 17 41 25 84 8 43 28 106 44 139 100 203 114 218 103 113 -5 -53 -3
-72 15 -112 27 -61 68 -115 87 -115 19 0 18 16 -1 24 -17 6 -21 46 -5 46 6 0
22 11 36 25 14 14 30 23 35 20 17 -11 9 22 -12 49 -25 32 -48 22 -30 -12 15
-28 14 -32 -8 -32 -10 0 -26 10 -35 23 -16 20 -17 20 -13 2 3 -11 8 -29 13
-39 12 -31 -14 -9 -33 27 -12 23 -17 58 -17 127 -1 95 -1 96 37 148 21 28 42
52 47 52 4 0 10 -14 12 -30z m776 -59 c35 -5 69 -8 77 -5 29 12 157 -46 229
-104 39 -31 85 -67 101 -80 25 -19 26 -21 5 -11 -14 7 -45 27 -70 46 -24 19
-46 30 -48 24 -5 -16 30 -59 60 -71 14 -7 37 -23 50 -37 21 -24 21 -25 2 -15
-12 6 -63 25 -114 42 -52 17 -127 47 -169 66 -41 19 -76 32 -79 30 -2 -3 47
-29 110 -59 75 -36 115 -61 115 -71 0 -20 2 -20 -55 7 -26 13 -66 32 -89 43
-22 10 -82 58 -132 106 -77 73 -90 90 -79 102 7 8 15 10 18 5 3 -4 34 -12 68
-18z m3265 -109 c-17 -30 -81 -65 -188 -102 -84 -29 -104 -40 -98 -56 3 -8 -1
-14 -10 -14 -8 0 -20 -6 -26 -14 -7 -8 -28 -17 -48 -21 -20 -3 -45 -13 -57
-20 -28 -18 -101 -32 -92 -17 4 6 12 9 19 6 7 -2 31 11 54 31 23 19 45 35 49
35 4 0 24 7 45 17 26 11 35 21 31 31 -4 12 -1 14 13 9 11 -5 22 -2 29 8 6 8
38 19 71 24 45 7 55 10 38 16 -20 6 -19 9 20 29 23 13 59 26 79 30 20 3 41 13
48 21 7 8 18 15 26 15 10 0 10 -6 -3 -28z m-1168 -219 c-16 -90 -28 -115 -62
-130 -19 -7 -31 -17 -29 -22 3 -5 -16 -11 -42 -14 -26 -2 -55 -8 -65 -12 -13
-5 -16 -3 -11 8 10 28 58 51 113 57 33 3 56 10 59 18 3 11 -6 12 -44 7 l-49
-7 40 36 c22 19 48 38 58 41 19 7 24 25 6 25 -18 0 -52 -21 -88 -54 -34 -31
-35 -31 -18 -3 16 24 16 27 2 27 -9 0 -24 -13 -33 -30 -18 -32 -32 -39 -32
-15 0 24 -17 17 -24 -10 -3 -13 -15 -29 -26 -35 -10 -6 -22 -26 -26 -45 -7
-41 -24 -57 -24 -23 1 39 36 104 74 134 34 28 170 82 210 83 16 1 17 -4 11
-36z m2286 -213 c-11 -29 -33 -71 -48 -94 -24 -36 -28 -38 -31 -19 -3 19 -7
17 -49 -24 -32 -31 -43 -47 -34 -52 9 -6 8 -11 -4 -21 -8 -7 -15 -21 -15 -31
0 -15 11 -11 60 26 78 60 126 117 161 190 15 33 29 53 30 45 0 -8 2 -31 4 -50
1 -19 8 -64 13 -100 12 -68 9 -221 -4 -255 -4 -11 -27 -44 -52 -73 -43 -52
-90 -83 -145 -96 l-28 -7 22 30 c12 17 28 32 36 35 7 3 13 11 13 17 0 7 -10 3
-23 -9 -27 -25 -46 -30 -26 -6 7 9 18 24 24 34 61 103 98 128 56 38 l-21 -43
25 30 c22 26 25 27 25 10 0 -18 2 -18 21 5 11 14 27 38 35 53 14 27 14 28 -3
19 -15 -8 -18 -6 -19 15 -3 39 -14 40 -43 4 -50 -65 -124 -141 -137 -141 -23
0 -16 20 19 51 60 54 89 84 109 112 23 32 24 32 -44 -11 -41 -26 -113 -122
-127 -171 -7 -23 -15 -50 -18 -59 -5 -12 -1 -14 20 -8 36 9 33 -5 -6 -29 -17
-11 -33 -28 -35 -36 -10 -51 236 42 312 118 36 36 50 28 22 -12 -7 -11 -24
-57 -36 -102 -12 -45 -27 -86 -33 -91 -16 -12 -149 -62 -166 -62 -22 0 6 28
50 50 20 11 39 25 41 31 2 7 15 13 29 14 22 1 55 42 44 54 -7 6 -58 -29 -77
-53 l-18 -21 0 22 c0 16 11 28 41 43 23 12 39 23 36 26 -2 2 -25 -7 -50 -21
-30 -17 -53 -24 -70 -20 -13 4 -44 1 -68 -6 -24 -7 -48 -13 -52 -13 -10 -1
-27 -28 -27 -45 0 -8 6 -11 15 -7 25 9 18 -32 -7 -45 -13 -7 -25 -10 -28 -8
-2 2 -16 -19 -30 -46 -27 -54 -103 -170 -146 -222 -24 -30 -25 -33 -8 -34 11
0 1 -7 -21 -15 -48 -17 -68 -40 -55 -64 7 -14 4 -16 -21 -12 -25 4 -38 -2 -67
-31 -33 -31 -127 -89 -202 -124 -69 -32 -137 -61 -157 -67 -13 -4 -23 -10 -23
-14 0 -4 -17 -7 -37 -8 -80 -1 -139 -8 -150 -17 -7 -5 -20 -6 -30 -3 -9 4 -19
3 -22 -3 -4 -5 -26 -5 -56 0 -27 5 -68 12 -90 16 -29 5 -1 9 105 15 255 13
385 59 595 209 107 76 195 165 251 250 23 36 49 71 57 77 8 7 42 74 75 150 69
155 102 291 102 419 0 93 9 155 21 147 20 -12 49 10 84 64 21 31 47 67 58 79
11 13 18 26 14 29 -3 3 -18 -13 -33 -35 -15 -23 -29 -39 -32 -36 -3 3 2 13 10
22 9 10 19 28 22 40 4 12 16 33 28 48 20 26 21 26 40 7 19 -18 19 -19 -1 -72z
m-4505 -85 c-9 -21 -19 -81 -22 -134 -5 -80 -2 -109 15 -174 37 -136 129 -266
247 -347 125 -86 233 -116 396 -107 127 7 198 31 334 114 137 84 158 93 201
92 38 -1 38 -1 -9 -9 -34 -6 -73 -27 -142 -74 -196 -137 -360 -180 -549 -145
-120 22 -321 132 -359 195 -9 16 -32 45 -50 64 -49 52 -108 202 -115 295 -9
121 -4 167 29 235 33 68 52 63 24 -5z m484 34 c36 -19 46 -30 48 -54 2 -24 -3
-34 -27 -48 -36 -21 -54 -21 -107 -1 -39 15 -45 15 -65 1 -20 -15 -26 -14 -70
9 -53 27 -63 50 -25 60 16 4 23 11 19 20 -3 8 1 21 8 30 21 26 162 15 219 -17z
m-1052 -183 c28 -14 119 -115 115 -128 -1 -3 12 -19 30 -35 17 -15 32 -32 33
-38 0 -5 26 -22 57 -37 32 -15 57 -32 57 -38 0 -5 9 -19 21 -31 38 -38 11 -31
-53 15 -34 25 -74 53 -88 64 -14 10 -43 29 -65 42 -52 30 -113 87 -132 123
-24 46 -10 40 33 -16 42 -55 119 -115 132 -103 3 4 -14 24 -38 44 -51 42 -92
84 -121 125 -23 31 -20 33 19 13z m4184 -219 c-59 -173 -155 -276 -340 -365
-61 -30 -100 -41 -179 -52 -58 -7 -112 -9 -129 -5 l-29 8 30 7 c17 4 57 8 90
9 63 1 255 54 255 70 0 5 24 23 54 40 58 32 156 143 194 218 36 70 72 189 74
245 2 44 3 41 5 -20 3 -59 -1 -87 -25 -155z m-155 38 c1 -21 -3 -35 -13 -39
-8 -3 -14 -12 -14 -20 0 -7 -7 -27 -15 -42 -8 -16 -15 -41 -15 -56 0 -16 -4
-28 -10 -28 -5 0 -21 -17 -35 -38 -28 -42 -86 -78 -111 -68 -10 4 -24 0 -34
-9 -12 -11 -20 -13 -25 -6 -3 6 -15 11 -26 11 -18 0 -18 2 -5 23 10 15 12 27
6 37 -15 23 -12 38 9 49 14 8 25 6 44 -9 30 -24 42 -15 22 17 -14 21 -14 25 0
47 11 17 22 22 40 18 20 -3 25 0 25 17 0 38 19 61 49 61 16 0 34 7 41 15 7 8
19 15 26 15 8 0 14 8 14 18 0 21 10 35 19 26 3 -3 6 -20 8 -39z m505 -53
c-104 -87 -99 -81 -76 -82 12 0 33 9 48 21 21 17 26 18 26 5 0 -8 -10 -21 -22
-27 -13 -7 -27 -18 -31 -26 -9 -15 -129 -73 -150 -73 -6 0 -2 7 9 16 18 15 18
15 -6 9 -14 -4 -36 -9 -50 -12 -24 -5 -25 -5 -5 11 11 8 28 16 37 16 9 0 20 5
23 10 8 12 8 12 -33 1 -17 -5 -32 -6 -32 -1 0 13 138 92 152 87 18 -6 58 16
87 47 14 14 32 26 40 26 11 -1 5 -10 -17 -28z m-3043 -46 c36 -19 55 -42 46
-57 -5 -7 -15 -2 -30 16 -17 22 -25 26 -39 18 -17 -9 -16 -11 7 -17 34 -8 41
-32 20 -69 -27 -50 -44 -67 -65 -67 -11 0 -31 -13 -45 -30 -28 -34 -38 -36
-59 -15 -9 8 -21 15 -27 15 -8 0 -7 -4 1 -12 20 -20 14 -28 -21 -28 -18 0 -38
-5 -44 -11 -8 -8 -16 -4 -28 15 -17 25 -19 26 -36 10 -18 -16 -19 -16 -19 -1
0 20 -11 22 -27 6 -6 -6 -17 -8 -23 -4 -8 5 -9 10 -1 18 15 15 14 27 -3 27
-15 0 -26 21 -26 48 0 12 7 9 29 -12 28 -27 51 -28 51 -3 0 7 4 18 9 26 7 12
15 10 43 -7 37 -23 78 -20 78 5 0 11 7 14 25 11 27 -6 34 6 10 16 -16 6 -21
46 -6 46 5 0 14 -7 21 -15 20 -24 38 -18 33 9 -5 22 -1 25 33 28 34 3 39 6 36
26 -4 26 16 29 57 8z m2899 -161 c-16 -13 -28 -27 -28 -31 0 -3 12 -3 28 0 26
6 26 6 7 -10 -30 -25 -81 -44 -115 -44 -16 0 -30 -4 -30 -10 0 -5 18 -10 41
-10 24 0 38 -4 34 -10 -3 -5 -22 -10 -42 -10 -20 0 -53 -5 -73 -11 -27 -8 -43
-8 -56 -1 -17 11 -17 11 6 13 23 1 22 2 -9 16 -26 11 -31 17 -21 23 9 6 17 5
21 -2 7 -11 111 12 152 34 33 17 9 20 -40 5 -26 -8 -61 -18 -78 -21 -28 -6
-28 -5 10 18 22 14 45 29 50 34 6 5 24 12 40 16 133 32 137 32 103 1z m-2038
-40 c0 -8 5 -15 10 -15 6 0 10 5 10 10 0 6 5 10 10 10 6 0 10 -7 10 -16 0 -11
6 -14 20 -9 11 4 20 2 20 -4 0 -6 -4 -11 -10 -11 -5 0 -7 -6 -4 -14 4 -11 0
-13 -17 -9 -19 5 -21 3 -14 -13 4 -10 10 -32 13 -47 2 -16 17 -38 33 -50 34
-24 22 -39 -21 -27 -23 7 -27 5 -23 -10 3 -10 15 -23 27 -29 17 -10 22 -22 24
-59 1 -26 6 -58 12 -73 7 -15 7 -34 2 -49 l-9 -24 -7 27 c-9 37 -29 35 -21 -1
3 -16 2 -40 -3 -53 -6 -13 -13 -101 -17 -194 -4 -94 -8 -172 -10 -174 -2 -1
-9 0 -15 4 -9 6 -9 9 0 15 18 11 3 29 -19 23 -11 -3 -21 2 -24 11 -4 9 -2 16
3 16 20 0 9 19 -35 65 -38 40 -43 50 -34 67 9 17 6 26 -22 54 -28 29 -31 35
-18 51 9 11 10 14 2 9 -7 -4 -13 -3 -13 3 0 5 7 14 16 19 15 9 16 11 1 32 -12
17 -13 28 -5 52 7 20 7 33 0 40 -7 7 -5 19 6 37 19 34 11 70 -23 102 -30 29
-31 40 -4 65 30 27 44 55 24 48 -10 -4 -15 0 -15 12 0 24 11 39 33 47 15 6 17
3 12 -16 -6 -17 -5 -19 5 -10 7 6 20 9 29 6 13 -5 13 -3 -3 15 -18 20 -18 22
4 51 22 32 60 42 60 16z m-3185 -74 c11 -75 61 -251 98 -337 18 -44 56 -113
83 -153 27 -41 59 -89 70 -108 12 -19 25 -33 29 -31 4 2 26 -18 48 -44 33 -40
38 -50 27 -63 -17 -20 -30 -19 -30 4 0 10 -9 21 -20 24 -11 3 -20 13 -20 24 0
25 -63 73 -95 73 -24 0 -26 3 -20 29 5 25 2 33 -19 46 -14 10 -26 26 -26 36 0
10 -5 21 -10 24 -22 13 -87 166 -120 278 -23 79 -37 113 -42 103 -11 -19 -58
-225 -67 -289 -6 -45 -7 -47 -25 -34 -25 18 -23 80 5 191 25 96 77 263 91 290
10 19 11 19 24 1 7 -10 16 -38 19 -64z m1523 -163 c-2 -6 7 -17 19 -23 13 -7
21 -14 18 -17 -3 -3 23 -4 57 -4 41 1 63 -3 66 -12 2 -8 13 -10 30 -5 24 6 26
5 13 -10 -17 -21 -2 -22 25 -2 10 8 28 14 39 14 18 1 18 -1 -5 -20 -20 -17
-21 -20 -5 -14 42 15 92 25 130 25 l40 0 -38 -31 c-51 -42 -40 -47 21 -10 60
37 76 39 67 9 l-7 -23 21 23 c22 22 41 29 41 14 0 -5 -9 -17 -20 -27 -11 -10
-20 -23 -20 -28 0 -6 16 6 35 26 39 40 51 46 41 22 -8 -23 38 10 58 40 9 14
26 30 38 36 17 9 13 1 -14 -29 -47 -52 -48 -61 -4 -26 19 15 43 28 54 29 19 1
19 -1 -6 -47 -55 -101 -142 -174 -99 -83 16 34 22 65 12 65 -5 0 -49 -30 -114
-78 -56 -41 -73 -41 -35 -1 20 22 23 28 9 21 -11 -6 -38 -29 -60 -51 -21 -23
-43 -41 -47 -41 -17 0 -6 20 37 68 l45 50 -38 -18 c-47 -23 -92 -35 -92 -24 0
4 7 16 17 26 20 22 7 23 -42 2 -21 -8 -48 -13 -61 -10 -12 3 -34 2 -48 -4 -32
-12 -33 -4 -3 28 l22 24 -25 -6 c-108 -22 -138 -13 -77 24 36 23 26 25 -39 9
-35 -9 -48 -9 -57 0 -9 10 -8 15 7 26 16 13 12 14 -45 17 l-64 3 35 17 35 16
-55 -5 c-51 -4 -54 -3 -36 11 24 19 127 23 124 4z m971 -257 c-12 -22 -31 -42
-41 -45 -11 -2 -17 -9 -13 -15 3 -6 2 -11 -4 -11 -5 0 -11 6 -14 13 -3 8 -13
3 -32 -15 -21 -22 -25 -31 -16 -41 8 -10 6 -23 -8 -53 -11 -21 -18 -41 -15
-43 6 -6 34 20 34 32 0 6 19 30 43 53 23 23 52 54 64 70 19 25 22 26 23 9 2
-131 -148 -254 -405 -334 -55 -17 -120 -33 -145 -37 l-45 -7 32 34 c24 25 93
163 93 187 0 1 -10 2 -23 2 -32 0 -52 -19 -66 -59 -14 -42 -6 -54 10 -17 7 14
16 26 21 26 11 0 -12 -43 -51 -98 -48 -65 -79 -79 -190 -86 -53 -3 -126 -8
-163 -10 -38 -3 -68 -2 -68 2 0 4 23 21 51 37 70 41 205 168 195 183 -13 21
-35 13 -59 -23 -66 -97 -225 -176 -328 -162 -74 10 -252 82 -246 100 3 10 69
32 130 44 16 3 35 16 43 29 9 13 31 32 50 43 19 11 34 25 34 30 0 5 -41 -12
-92 -37 -87 -44 -98 -47 -186 -50 -93 -4 -94 -4 -148 32 -30 20 -78 58 -107
84 -28 26 -66 57 -82 70 l-30 22 65 -7 c79 -9 101 -8 165 6 54 12 152 48 172
64 9 6 21 4 38 -7 13 -9 31 -16 38 -16 8 0 32 -14 53 -31 58 -46 163 -96 228
-108 31 -6 61 -13 66 -16 22 -14 174 -35 250 -35 225 0 436 64 625 189 33 22
64 40 68 40 5 1 -2 -17 -14 -38z m2983 -102 c19 -1 17 -3 -9 -11 -35 -12 -46
-30 -13 -21 11 3 20 1 20 -5 0 -15 -44 -45 -48 -32 -5 15 -32 12 -32 -4 0 -15
45 -30 61 -20 6 4 17 22 25 40 13 31 44 48 44 23 0 -5 6 -7 13 -4 6 4 3 -1 -8
-9 -11 -9 -36 -31 -56 -50 -55 -52 -141 -70 -204 -42 -35 16 -22 25 38 29 44
3 59 16 28 24 l-23 6 23 13 24 14 -23 6 c-34 10 -5 26 32 18 21 -5 27 -3 24 7
-7 20 23 39 44 28 9 -5 27 -9 40 -10z m1488 -21 c0 -6 -7 -19 -16 -29 -24 -27
-77 -324 -104 -594 -9 -90 -40 -316 -46 -334 -6 -18 -91 62 -136 127 -16 24
-35 41 -41 39 -11 -3 -39 -37 -126 -152 -142 -188 -450 -515 -626 -666 -181
-155 -319 -259 -530 -402 -262 -177 -350 -229 -330 -197 9 15 -7 12 -30 -6
-11 -8 -20 -20 -20 -27 0 -7 -29 -27 -65 -46 -36 -18 -104 -55 -153 -83 -99
-56 -141 -60 -55 -6 31 20 58 41 62 46 11 18 -72 -5 -126 -35 -44 -26 -53 -35
-50 -56 2 -20 -5 -27 -45 -43 -69 -27 -70 -28 -43 -4 14 12 20 20 15 18 -11
-3 -211 -108 -255 -134 -108 -62 -584 -253 -597 -240 -3 3 3 9 13 12 47 17
371 171 483 230 303 159 412 224 691 410 304 203 723 558 950 807 147 160 270
302 290 334 9 16 27 37 40 48 12 11 43 49 68 85 26 36 80 107 120 159 40 52
72 101 70 110 -2 9 -14 17 -28 19 -14 1 -68 14 -120 27 -64 17 -107 23 -134
18 -61 -10 -42 13 64 74 82 47 142 84 290 178 94 59 324 207 409 262 102 66
111 70 111 51z m-1899 -122 c24 -16 44 -23 58 -19 12 3 32 1 44 -5 12 -5 49
-16 82 -23 79 -16 82 -18 48 -40 -26 -18 -46 -19 -88 -2 -13 4 -16 2 -13 -8 2
-7 15 -16 29 -19 24 -6 23 -7 -9 -24 -37 -19 -62 -15 -62 10 0 8 -6 14 -12 11
-7 -2 -12 -10 -10 -16 5 -26 -27 -8 -51 29 l-26 40 32 2 c18 1 40 2 50 1 10 0
16 5 14 11 -2 6 -12 11 -23 11 -10 0 -23 3 -29 6 -5 3 -23 4 -40 4 -28 -2 -75
27 -75 47 0 17 46 7 81 -16z m-298 -229 c9 -24 -7 -32 -66 -34 -33 -2 -87 -12
-120 -24 -64 -23 -92 -39 -67 -39 9 0 6 -6 -8 -16 -12 -8 -27 -25 -34 -37 -13
-25 -17 -27 62 34 38 29 52 34 97 34 50 0 70 -14 43 -30 -5 -3 -10 -11 -10
-17 0 -6 11 -1 25 12 14 13 28 20 32 16 12 -12 -12 -40 -43 -48 -16 -4 -45
-16 -64 -26 -19 -11 -66 -30 -105 -43 -38 -12 -75 -27 -82 -32 -23 -16 -87
-47 -100 -47 -6 0 -23 -11 -37 -25 -14 -14 -33 -25 -42 -25 -17 0 -6 19 73
117 31 38 41 63 27 63 -14 0 -64 -42 -59 -50 8 -13 -84 -150 -108 -161 -12 -5
-51 -27 -87 -48 -52 -31 -67 -36 -77 -25 -14 14 -4 56 16 69 14 8 14 -11 1
-36 -6 -10 -7 -19 -2 -19 16 0 45 39 39 53 -3 8 2 25 10 37 13 19 7 16 -31
-11 -93 -66 -296 -246 -296 -262 0 -6 -22 -34 -49 -62 -47 -48 -125 -164 -219
-325 -24 -41 -40 -64 -37 -50 15 54 131 260 198 350 100 135 299 331 432 424
129 91 353 204 510 256 119 40 170 48 178 27z m-5272 -175 c20 -61 58 -132 72
-132 7 0 24 -18 36 -41 22 -39 22 -41 5 -54 -16 -12 -17 -17 -6 -32 7 -10 15
-26 18 -35 12 -36 19 -16 20 55 1 82 22 233 36 261 14 26 26 9 45 -60 36 -142
112 -281 167 -307 25 -12 36 -23 36 -39 1 -13 7 -34 15 -48 19 -34 18 -40 -5
-40 -21 0 -45 34 -35 50 3 6 -2 10 -12 10 -27 0 -89 88 -147 209 l-50 106 -13
-95 c-7 -52 -15 -112 -18 -134 -4 -34 1 -46 43 -102 37 -51 48 -60 50 -44 5
29 22 25 22 -5 0 -14 5 -25 10 -25 14 0 12 -19 -3 -35 -8 -8 -19 -10 -27 -5
-7 5 -24 4 -36 -1 -45 -17 -134 -6 -134 16 0 15 10 17 85 19 36 1 40 4 40 26
0 27 0 27 -85 14 -36 -5 -49 -3 -59 10 -19 23 -11 28 56 35 l58 6 -25 18 c-13
9 -36 17 -50 17 -14 1 -36 7 -49 14 -32 18 -11 30 35 21 33 -6 34 -5 22 15
-10 16 -20 20 -40 16 -15 -3 -31 0 -37 8 -14 16 -4 26 26 26 34 0 28 16 -22
62 -25 23 -45 49 -45 58 0 9 -3 20 -7 24 -7 7 -12 26 -15 66 -1 14 -5 30 -8
35 -10 14 0 86 10 80 5 -3 14 -22 21 -43z m2245 38 c214 -38 504 -130 639
-202 210 -113 450 -310 598 -491 46 -56 91 -115 102 -132 l19 -30 -33 28 c-18
15 -37 27 -42 27 -6 0 -8 4 -5 9 11 17 -39 76 -67 79 -25 3 -31 11 -28 38 2
17 -38 54 -59 54 -10 0 -22 5 -25 10 -10 16 -47 12 -61 -7 -12 -17 -15 -15
-48 16 -43 41 -45 51 -10 51 21 0 25 4 22 23 -3 20 -8 22 -60 20 -55 -1 -58 0
-116 50 -180 156 -488 312 -877 445 -68 23 -46 29 51 12z m-511 -174 c72 -24
180 -58 240 -76 239 -70 467 -158 619 -241 165 -90 246 -149 369 -269 149
-143 324 -377 314 -419 -2 -11 -10 -3 -25 24 -52 93 -110 162 -320 378 -48 50
-265 202 -332 234 -36 16 -112 53 -170 81 -58 28 -143 63 -190 78 -47 15 -101
33 -120 39 -58 21 -360 115 -369 115 -4 0 -6 -10 -4 -23 6 -29 -19 -51 -47
-42 -24 7 -26 37 -5 55 23 19 19 26 -22 38 -74 23 -132 72 -85 72 9 0 76 -20
147 -44z m6308 -191 c15 -85 24 -174 46 -460 10 -121 9 -363 0 -380 -3 -6 -7
-57 -7 -115 -3 -148 -39 -435 -76 -600 -39 -175 -105 -418 -126 -465 -5 -11
-12 -31 -15 -45 -21 -82 -117 -301 -233 -535 -163 -325 -452 -728 -724 -1005
-170 -174 -425 -392 -613 -523 -195 -136 -369 -244 -464 -287 -24 -11 -55 -29
-70 -39 -55 -38 -160 -72 -214 -69 l-52 3 54 19 c30 10 84 33 120 51 36 18 82
39 101 48 94 39 442 263 600 384 216 167 275 220 484 428 462 461 772 965 994
1617 63 182 115 385 141 548 30 186 59 382 59 405 0 11 4 51 9 88 13 91 8 591
-6 692 -6 44 -11 101 -10 125 1 25 -4 67 -10 95 -7 27 -16 79 -21 115 -5 36
-11 81 -14 100 -3 19 2 4 13 -35 10 -38 25 -110 34 -160z m-6387 60 c53 -97
122 -167 193 -199 48 -21 65 -25 81 -16 16 9 18 14 8 29 -22 35 16 77 47 51
21 -17 19 -54 -5 -75 -26 -23 -25 -29 5 -43 27 -13 78 -87 72 -105 -2 -7 -13
7 -25 29 -28 54 -76 84 -135 84 -42 0 -54 6 -127 66 l-81 65 -77 -27 -78 -28
-72 23 c-40 13 -104 43 -143 67 -39 24 -77 44 -83 44 -22 0 -43 -34 -50 -80
-5 -37 -2 -55 18 -95 14 -27 23 -51 21 -53 -9 -9 -45 65 -56 114 -10 42 -9 55
5 82 33 63 68 66 143 12 31 -22 60 -40 65 -40 4 0 8 21 8 46 0 27 4 43 10 39
6 -3 10 -26 10 -51 0 -39 3 -46 28 -55 51 -20 142 -23 176 -6 17 8 39 18 49
21 16 5 14 12 -18 76 -33 65 -41 90 -30 90 2 0 20 -29 41 -65z m-261 -162
c-17 -45 -23 -113 -14 -148 19 -69 133 -170 164 -145 11 9 19 8 39 -7 33 -23
38 -37 22 -59 -11 -15 -18 -16 -52 -6 -67 19 -294 101 -312 112 -30 19 55 1
148 -31 46 -16 90 -29 97 -29 6 0 -17 28 -52 63 -88 87 -100 131 -58 230 16
36 32 54 18 20z m-1235 -155 c0 -10 19 -12 70 -10 49 3 68 7 65 15 -4 7 6 -3
22 -22 15 -19 47 -57 70 -85 24 -27 40 -52 37 -55 -3 -3 -15 5 -25 18 -15 18
-23 21 -31 13 -9 -9 -8 -12 5 -12 9 0 17 -4 17 -10 0 -6 -27 -8 -70 -5 -46 4
-70 2 -70 -5 0 -17 -72 0 -94 22 -10 11 -16 21 -14 23 2 3 55 6 116 7 62 2
112 5 112 9 0 3 -16 20 -35 39 -34 33 -35 33 -55 15 -15 -13 -30 -16 -60 -12
-22 3 -43 1 -46 -4 -7 -12 -16 -11 -37 5 -15 12 -16 18 -6 40 13 27 29 35 29
14z m326 -303 c12 -12 12 -18 2 -35 -14 -22 -13 -22 -45 -25 -13 -1 -29 -8
-38 -15 -8 -7 -25 -10 -37 -7 -11 3 -29 2 -39 -4 -11 -6 -20 -5 -24 1 -3 5
-19 10 -35 10 -16 0 -31 4 -34 9 -8 13 45 46 68 42 20 -3 89 14 116 29 23 13
50 11 66 -5z m6810 -83 c-3 -5 -56 -7 -122 -5 -93 3 -122 0 -140 -12 -19 -12
-28 -13 -43 -4 -14 10 -29 9 -65 -1 l-46 -13 -1 -91 c-1 -50 -2 -262 -4 -471
-1 -209 -3 -384 -3 -390 -1 -5 -6 -5 -12 1 -5 5 -11 202 -14 481 -3 260 -8
484 -12 498 l-6 25 228 2 c126 2 233 0 238 -4 4 -3 6 -10 2 -16z m-6716 9 c0
-5 -8 -12 -17 -14 -10 -3 -1 -5 20 -6 41 -1 46 -10 18 -35 -12 -11 -20 -13
-23 -6 -2 7 -13 4 -29 -9 -15 -11 -29 -18 -32 -14 -4 3 -13 1 -20 -5 -8 -7
-16 -9 -20 -6 -3 3 -17 -2 -31 -11 -18 -12 -26 -14 -26 -5 0 8 -8 10 -22 7
-26 -7 -108 11 -108 24 0 5 8 9 18 9 10 0 22 3 26 7 4 4 26 6 49 4 23 -1 39 1
35 5 -10 9 38 34 67 34 13 0 25 7 29 15 6 16 66 21 66 6z m2018 -57 c26 -18
45 -51 37 -63 -3 -5 -20 6 -39 25 -41 41 -61 42 -98 7 -20 -19 -28 -36 -28
-62 0 -69 66 -96 113 -45 35 37 51 28 29 -16 -20 -41 -61 -51 -114 -26 -18 8
-43 17 -54 21 -43 12 -35 113 11 153 32 27 108 30 143 6z m-2488 -75 c34 -70
64 -112 133 -186 28 -30 44 -54 38 -58 -6 -3 -16 -3 -21 0 -11 7 -69 81 -128
164 l-33 46 4 -50 c2 -27 10 -77 17 -111 14 -65 7 -133 -11 -102 -5 9 -13 71
-19 139 -5 68 -13 145 -16 172 -3 26 -3 47 0 47 3 0 19 -28 36 -61z m608 0
c23 -1 29 -3 14 -6 -12 -2 -27 -13 -32 -24 -13 -23 -30 -25 -30 -2 0 11 -11 5
-36 -21 -20 -20 -38 -35 -41 -32 -3 3 -15 0 -27 -6 -11 -7 -28 -11 -37 -10 -9
2 -22 -4 -29 -13 -10 -12 -16 -13 -26 -4 -10 8 -18 8 -27 1 -14 -12 -87 -5
-87 8 0 4 20 15 45 24 25 10 45 22 45 27 0 5 8 9 17 9 9 0 24 7 34 16 10 9 36
18 58 21 23 3 41 9 41 14 0 12 33 16 58 7 13 -4 40 -9 60 -9z m2295 -245 c9
-53 8 -68 -8 -110 -10 -27 -29 -58 -43 -69 -13 -11 -41 -35 -62 -52 -20 -18
-44 -33 -51 -33 -8 0 -20 -9 -27 -20 -7 -11 -22 -20 -33 -20 -20 0 -20 1 5 31
21 24 26 41 26 83 0 40 5 57 20 71 11 10 20 13 20 7 0 -6 -5 -14 -11 -17 -9
-6 -4 -82 7 -94 7 -8 106 73 118 98 29 57 29 99 0 236 -2 11 3 4 12 -15 9 -19
21 -63 27 -96z m-313 70 l32 -37 -4 -283 c-1 -155 -6 -286 -10 -290 -5 -4 -11
-4 -15 0 -5 4 -10 131 -13 281 -5 264 -6 274 -27 304 -48 63 -16 84 37 25z
m-839 -44 c44 -12 87 -56 95 -98 6 -27 4 -31 -10 -26 -12 5 -16 0 -16 -18 0
-13 -6 -33 -14 -43 -8 -11 -12 -24 -10 -30 3 -6 -9 -23 -26 -38 -23 -21 -30
-36 -31 -65 -6 -208 -6 -424 2 -453 6 -24 40 -69 105 -140 53 -57 100 -105
105 -107 4 -2 9 4 11 14 3 15 5 14 20 -2 15 -18 15 -20 -3 -43 -14 -17 -20
-20 -24 -9 -3 8 -60 69 -126 136 l-120 121 -5 248 c-3 136 -7 257 -9 268 -3
11 -18 28 -35 37 -53 30 -77 130 -46 187 11 20 80 71 96 71 3 0 21 -5 41 -10z
m-895 -29 c-4 -6 -16 -11 -28 -11 -18 0 -19 -4 -14 -35 5 -24 3 -35 -5 -35 -6
0 -20 -11 -31 -25 -11 -14 -27 -24 -36 -23 -11 2 -18 -5 -20 -20 -4 -27 -41
-50 -52 -32 -5 8 -15 1 -33 -19 -29 -35 -37 -38 -37 -16 0 8 -6 15 -12 15 -7
0 -5 5 5 11 11 6 16 17 12 28 -4 14 7 23 52 44 61 27 152 112 130 121 -7 2 0
5 15 5 15 1 30 6 34 12 4 7 10 7 16 1 6 -6 7 -15 4 -21z m2799 -132 c5 -5 17
-9 27 -9 22 0 24 -16 2 -24 -10 -4 -22 1 -29 11 -24 32 -28 5 -18 -107 9 -101
12 -113 38 -140 l29 -30 -22 -23 c-18 -19 -22 -35 -22 -95 0 -51 4 -72 13 -72
9 0 8 -3 -2 -9 -10 -7 -13 -41 -11 -152 3 -220 1 -333 -7 -325 -5 4 -9 85 -10
179 -2 192 -10 444 -18 557 -3 41 -7 100 -9 130 -2 30 -7 72 -11 94 -8 37 -7
38 16 31 13 -4 28 -11 34 -16z m-1392 -33 c32 -13 67 -53 67 -77 0 -8 -4 -8
-15 1 -8 6 -20 10 -27 7 -7 -2 -21 2 -30 11 -42 36 -128 -2 -128 -58 0 -29 22
-65 50 -80 30 -16 88 12 104 51 l13 31 11 -32 c8 -21 8 -38 2 -50 -12 -23 -63
-60 -82 -60 -10 0 -13 -34 -12 -175 1 -144 -1 -175 -12 -175 -12 0 -14 29 -13
163 1 170 -7 211 -40 222 -30 9 -61 67 -61 113 0 55 7 69 49 97 40 28 77 31
124 11z m-2547 -98 c27 -1 55 -6 62 -11 8 -7 12 -4 12 9 0 17 2 17 18 -3 16
-21 151 -73 190 -73 10 0 48 -16 85 -36 53 -28 71 -33 82 -24 10 8 15 8 22 -3
4 -8 24 -22 43 -32 64 -32 64 -33 7 -88 -46 -46 -99 -76 -134 -77 -8 0 -5 12
8 35 12 19 25 35 29 35 5 0 25 17 44 37 34 37 35 38 14 46 -17 6 -30 0 -62
-32 -54 -51 -126 -88 -126 -63 0 16 92 112 108 112 12 0 8 -8 -14 -32 l-29
-31 34 19 c19 10 36 25 38 31 5 14 -64 46 -87 40 -8 -3 -4 -5 9 -6 23 -1 22
-2 -10 -26 -51 -37 -98 -60 -106 -51 -5 4 4 18 18 29 24 20 49 67 35 67 -3 0
-22 -11 -42 -25 -35 -24 -74 -33 -74 -18 0 4 9 17 21 29 30 32 21 47 -15 29
-46 -24 -62 -16 -36 18 17 21 18 27 6 27 -8 0 -17 -4 -20 -9 -3 -5 -14 -11
-25 -14 -14 -3 -18 -1 -14 10 5 12 -1 13 -33 7 -37 -7 -38 -6 -24 11 14 17 13
18 -19 12 -27 -6 -32 -4 -27 8 4 12 -5 15 -52 15 -59 0 -101 14 -72 24 30 10
55 13 71 10 9 -3 38 -5 65 -6z m6694 -83 c-9 -10 -35 -13 -108 -9 -99 4 -287
-8 -299 -20 -3 -3 -7 -111 -7 -240 -1 -129 -5 -238 -9 -242 -4 -4 -7 4 -7 17
-1 13 -2 125 -5 249 -2 124 -6 233 -10 242 -6 16 9 18 217 20 122 2 227 1 231
0 4 -2 3 -10 -3 -17z m-5875 -229 c18 -13 19 -16 4 -33 -9 -10 -20 -28 -23
-40 -8 -26 -17 -28 -34 -11 -9 9 -12 5 -12 -20 0 -21 -5 -32 -14 -32 -8 0 -34
-18 -57 -40 -24 -22 -52 -40 -62 -40 -24 0 -17 22 8 26 10 1 25 10 34 18 13
14 13 16 0 16 -8 0 -21 -6 -28 -12 -11 -11 -11 -9 -2 9 6 13 26 27 44 32 22 6
26 10 12 11 -18 1 -18 2 3 10 13 6 22 15 20 22 -1 7 3 23 10 36 11 20 10 22
-8 22 -29 0 -25 17 8 28 39 15 75 14 97 -2z m5113 -278 c-3 -8 -27 -14 -64
-16 -32 -2 -61 -8 -65 -14 -4 -7 -13 -7 -27 1 -23 12 -114 14 -184 5 -71 -10
-73 -20 -75 -349 -2 -360 -2 -360 -10 -351 -7 7 -14 714 -7 726 1 3 100 7 219
8 172 2 216 0 213 -10z m-4519 -224 c106 -20 245 -70 375 -137 126 -64 109
-74 -22 -13 -145 67 -285 115 -371 126 -121 16 -141 20 -141 30 0 15 62 12
159 -6z m3759 -278 c33 -21 -16 -28 -200 -30 -142 -1 -199 -4 -210 -14 -13
-11 -17 -9 -22 13 -4 14 -5 29 -2 33 6 10 418 9 434 -2z m-4043 -121 c44 -37
132 -67 190 -67 73 1 166 19 268 53 65 22 140 43 166 46 59 7 144 -17 186 -51
30 -25 29 -25 -40 4 -91 38 -142 38 -247 0 -46 -17 -125 -42 -176 -55 -82 -21
-103 -23 -166 -15 -39 5 -94 18 -122 30 -56 24 -164 125 -164 154 0 14 7 9 29
-21 16 -22 50 -57 76 -78z m6013 -327 c-55 -71 -259 -266 -318 -305 -30 -20
-64 -44 -75 -54 -34 -30 -337 -210 -397 -235 -31 -13 -101 -46 -155 -73 -54
-28 -154 -69 -223 -92 -69 -23 -143 -50 -165 -61 -64 -31 -166 -68 -189 -68
-11 0 -30 -7 -40 -15 -11 -8 -27 -15 -35 -15 -26 0 -134 -55 -155 -79 -11 -11
-29 -21 -42 -21 -13 0 -38 -6 -56 -14 -18 -8 -64 -27 -102 -42 -39 -16 -86
-45 -108 -66 -24 -23 -47 -37 -57 -34 -17 5 -185 -96 -297 -179 -70 -52 -261
-236 -352 -340 -29 -33 -48 -49 -41 -35 44 91 288 344 439 456 197 146 597
352 801 412 71 21 339 121 454 170 508 214 727 351 1060 665 81 76 101 86 53
25z m-6353 -854 c293 -278 708 -574 1045 -744 115 -59 139 -69 195 -85 48 -14
56 -19 42 -27 -20 -10 -64 -3 -117 20 -19 8 -46 20 -60 25 -14 6 -38 21 -55
32 -16 12 -57 34 -90 49 -60 27 -142 75 -285 168 -128 82 -480 352 -580 445
-108 100 -340 339 -340 350 0 4 42 -34 93 -84 50 -51 119 -118 152 -149z
m1710 -999 c81 -14 313 -85 346 -106 8 -4 10 -11 7 -15 -4 -3 -80 14 -170 39
-204 57 -318 71 -480 62 -107 -6 -437 -57 -460 -71 -4 -3 -31 -9 -58 -13 -58
-9 -69 5 -12 15 20 3 70 17 110 31 80 26 238 60 341 73 90 12 267 5 376 -15z
m3228 5 c15 -6 -17 -9 -98 -9 -256 -2 -418 -31 -660 -121 -236 -87 -460 -231
-609 -390 -59 -63 -59 -48 0 25 88 107 259 238 436 333 107 57 320 129 463
158 107 21 138 23 283 18 90 -3 173 -9 185 -14z m2553 -532 c22 -20 62 -48 91
-61 l51 -24 -36 -13 c-78 -27 -169 -119 -187 -188 -7 -26 -8 -25 -30 24 -29
66 -87 124 -156 157 -52 24 -53 26 -27 32 70 18 178 128 193 197 7 29 7 28 35
-29 15 -32 45 -75 66 -95z"/>
<path d="M4747 9098 c-50 -38 -36 -123 23 -148 28 -12 37 -11 59 1 55 31 65
95 21 139 -23 23 -77 27 -103 8z"/>
<path d="M4251 8857 c-54 -27 -52 -109 4 -133 46 -19 60 -18 89 9 39 33 43 76
12 110 -27 30 -65 35 -105 14z"/>
<path d="M5251 8854 c-60 -50 -27 -144 50 -144 39 0 89 43 89 76 0 39 -22 74
-49 80 -14 3 -33 8 -42 10 -9 3 -31 -7 -48 -22z"/>
<path d="M2892 4617 c-56 -32 -63 -89 -15 -127 36 -28 70 -25 104 9 38 39 38
72 -2 105 -34 29 -53 31 -87 13z"/>
</g>
</svg>
